<svg width="50" height="50" viewBox="0 0 50 50" fill="none" xmlns="http://www.w3.org/2000/svg">
<g clip-path="url(#clip0)">
<path d="M48.2784 4.55185L45.2739 1.54736C43.3145 -0.412012 40.0129 -0.525977 37.9139 1.29346L32.6335 5.8706C32.566 5.9292 32.5079 5.99814 32.4618 6.0748L27.3217 14.6369L24.0213 15.737C23.7424 15.83 23.5316 16.0607 23.4641 16.3468C23.3966 16.6328 23.482 16.9334 23.6898 17.1413L32.6844 26.1358C32.8453 26.2967 33.0619 26.3842 33.2841 26.3842C33.3491 26.3842 33.4144 26.3768 33.4789 26.3615C33.765 26.294 33.9957 26.0832 34.0887 25.8043L35.1891 22.5028L43.8771 17.2567C43.9536 17.2104 44.0223 17.1525 44.0807 17.0848L48.5495 11.9062C50.3587 9.80967 50.237 6.51055 48.2784 4.55185ZM47.2655 10.798L42.8849 15.8744L34.0451 21.2122C33.8725 21.3164 33.7427 21.4787 33.6789 21.6701L32.9136 23.9662L30.8868 21.9394C30.8864 21.939 30.8861 21.9385 30.8857 21.9381L27.8873 18.9399C27.887 18.9396 27.8867 18.9394 27.8864 18.9392L25.8593 16.9121L28.1554 16.1468C28.3474 16.0827 28.5102 15.9522 28.6143 15.7788L33.8465 7.06367L39.0248 2.575C40.4656 1.32598 42.7308 1.40293 44.0745 2.74678L47.079 5.75127C48.4234 7.09541 48.507 9.35947 47.2655 10.798Z" fill="white"/>
<path d="M45.8729 34.0745C43.383 31.5848 39.7185 30.7194 36.3983 31.7957L18.3756 13.7731C19.4519 10.4529 18.5864 6.7882 16.0968 4.29836C13.4738 1.67551 9.5469 0.854997 6.09241 2.2089C5.8261 2.3133 5.6302 2.54494 5.5717 2.82502C5.51321 3.105 5.59983 3.39572 5.80217 3.59806L11.1968 8.9926L7.59885 12.5904L2.20432 7.19582C2.00188 6.99357 1.71155 6.90715 1.43127 6.96535C1.1512 7.02385 0.919457 7.21965 0.81516 7.48605C-0.538551 10.9404 0.281664 14.8673 2.90461 17.4904C5.39446 19.9802 9.05901 20.8458 12.3792 19.7693L19.1183 26.5083L10.726 34.9008L5.38831 37.8852C5.23987 37.9682 5.11975 38.094 5.04368 38.2461L2.64514 43.0432C2.48186 43.3697 2.54582 43.764 2.80393 44.0222L5.80207 47.0204C5.96487 47.1832 6.18196 47.2688 6.40198 47.2688C6.53079 47.2688 6.66057 47.2395 6.78108 47.1792L11.5781 44.7807C11.7303 44.7046 11.8561 44.5845 11.9391 44.4361L14.9235 39.0983L23.3159 30.7061L30.402 37.7921C29.3256 41.1123 30.1911 44.777 32.6809 47.2668C34.4644 49.0502 36.8504 50.0002 39.2811 50.0002C40.4252 50.0001 41.5795 49.7896 42.6852 49.3564C42.9515 49.252 43.1474 49.0203 43.2059 48.7403C43.2644 48.4603 43.1778 48.1696 42.9754 47.9672L37.5808 42.5726L41.1786 38.9748L46.5732 44.3694C46.7755 44.5717 47.066 44.6585 47.3462 44.5998C47.6263 44.5413 47.858 44.3455 47.9623 44.0791C49.3161 40.6246 48.4959 36.6977 45.8729 34.0745ZM13.6408 37.9821C13.5857 38.0372 13.5385 38.0997 13.5004 38.1679L10.5861 43.3804L6.56926 45.3888L4.43547 43.255L6.44377 39.2381L11.6562 36.3238C11.7243 36.2858 11.7868 36.2386 11.842 36.1834L20.3175 27.7078L22.1164 29.5068L13.6408 37.9821ZM46.7639 42.1613L41.7783 37.1757C41.4471 36.8447 40.9103 36.8447 40.579 37.1757L35.782 41.9728C35.623 42.1319 35.5336 42.3475 35.5336 42.5725C35.5336 42.7975 35.623 43.013 35.782 43.1722L40.7676 48.1578C38.2955 48.649 35.7031 47.8904 33.8802 46.0675C31.734 43.9213 31.0628 40.7079 32.1705 37.8813C32.2935 37.5674 32.219 37.2106 31.9807 36.9722L13.1991 18.1907C13.037 18.0287 12.8201 17.9424 12.5992 17.9424C12.4953 17.9424 12.3905 17.9615 12.2901 18.0009C9.4635 19.1087 6.25012 18.4373 4.10383 16.2913C2.28088 14.4683 1.52209 11.8757 2.0136 9.40383L6.99914 14.3895C7.33039 14.7206 7.86721 14.7204 8.19846 14.3895L12.9955 9.5924C13.3267 9.26115 13.3267 8.72433 12.9955 8.39308L8.00998 3.40744C10.4821 2.91525 13.0743 3.67463 14.8974 5.49777C17.0436 7.64396 17.7148 10.8573 16.6071 13.684C16.4841 13.9979 16.5586 14.3547 16.7969 14.5931L35.5782 33.3743C35.8167 33.6126 36.1738 33.6871 36.4873 33.5642C39.3141 32.4568 42.5273 33.1277 44.6736 35.2738C46.4967 37.0968 47.2553 39.6895 46.7639 42.1613Z" fill="white"/>
</g>
<defs>
<clipPath id="clip0">
<rect width="50" height="50" fill="white"/>
</clipPath>
</defs>
</svg>
