<svg width="62" height="49" viewBox="0 0 62 49" fill="none" xmlns="http://www.w3.org/2000/svg">
<path fill-rule="evenodd" clip-rule="evenodd" d="M7.75 20.9062H13.5625C13.9035 20.9062 14.2271 20.976 14.5312 21.0845V11.9172L12.2876 11.1693C11.8914 11.0366 11.625 10.6675 11.625 10.25V7.34372C11.625 6.92619 11.8914 6.5571 12.2876 6.42438L14.6368 5.64163C14.9643 4.39485 16.09 3.46872 17.4375 3.46872H28.8532C30.566 3.46872 32.054 4.56825 32.5568 6.20447L39.4659 28.6562H39.7188H41.6562H43.5938V30.5937H40.6875H38.75H21.3125C17.5741 30.5937 14.5312 27.5518 14.5312 23.8125C14.5312 23.2787 14.0972 22.8437 13.5625 22.8437H7.75C5.07915 22.8437 2.90625 25.0166 2.90625 27.6875V39.3125C2.90625 39.8463 3.34025 40.2812 3.875 40.2812H5.18281C5.983 38.0269 8.13072 36.4062 10.6562 36.4062C13.1818 36.4062 15.3295 38.0269 16.1297 40.2812H26.1562C26.1562 36.0081 29.6331 32.5312 33.9062 32.5312C38.1794 32.5312 41.6562 36.0081 41.6562 40.2812H42.625C43.1597 40.2812 43.5938 39.8463 43.5938 39.3125V30.5937V28.6562V2.26151V0.353821H44.8308C45.3665 0.353821 45.5312 0.981571 45.5312 1.51632V29.625V32.5312H47.4688V5.40622C47.4688 4.87147 47.9018 4.43747 48.4375 4.43747H49.4062V6.37497V40.2812C49.4062 40.815 49.8403 41.25 50.375 41.25H59.0938H61.0312V42.2187C61.0312 42.7535 60.5982 43.1875 60.0625 43.1875H50.375C48.7727 43.1875 47.4688 41.8835 47.4688 40.2812V38.3437H45.5312V39.3125C45.5312 40.9148 44.2273 42.2187 42.625 42.2187H41.4015C40.5373 45.5561 37.51 48.0312 33.9062 48.0312C30.3025 48.0312 27.2752 45.5561 26.411 42.2187H16.4688C16.4688 45.4243 13.8618 48.0312 10.6562 48.0312C7.45066 48.0312 4.84375 45.4243 4.84375 42.2187H3.875C2.27269 42.2187 0.96875 40.9148 0.96875 39.3125V27.6875C0.96875 23.9481 4.01159 20.9062 7.75 20.9062ZM16.4688 22.8437V13.1562V11.2187V6.37497C16.4688 5.84119 16.9027 5.40622 17.4375 5.40622H28.8532C29.7096 5.40622 30.4546 5.95551 30.7045 6.77313L34.2318 18.2334L34.905 20.4219L37.4383 28.6562H30.0312H28.0938H25.1875H23.25H21.3125C18.973 28.6562 17.0171 26.989 16.5666 24.7812L16.4688 22.8437ZM14.5312 9.8741L13.5625 9.55151V8.04122L14.5312 7.71863V9.8741ZM47.4688 34.4687V36.4062H45.5312V34.4687H47.4688ZM39.7188 40.2812C39.7188 43.4868 37.1118 46.0937 33.9062 46.0937C30.7007 46.0937 28.0938 43.4868 28.0938 40.2812C28.0938 37.0756 30.7007 34.4687 33.9062 34.4687C37.1118 34.4687 39.7188 37.0756 39.7188 40.2812ZM14.5312 42.2187C14.5312 44.3558 12.7933 46.0937 10.6562 46.0937C8.51919 46.0937 6.78125 44.3558 6.78125 42.2187C6.78125 40.0817 8.51919 38.3437 10.6562 38.3437C12.7933 38.3437 14.5312 40.0817 14.5312 42.2187Z" fill="white"/>
<path d="M34.8438 39.2703H32.9062V41.2078H34.8438V39.2703Z" fill="white"/>
<path d="M11.7622 41.3692H9.82471V43.3067H11.7622V41.3692Z" fill="white"/>
</svg>
