<svg width="60" height="45" viewBox="0 0 60 45" xmlns="http://www.w3.org/2000/svg">
<path fill-rule="evenodd" clip-rule="evenodd" d="M58.7787 24.6718L46.7526 12.6457C46.4834 12.3748 46.163 12.16 45.8101 12.0138C45.4573 11.8676 45.0789 11.793 44.6969 11.7942H28.0625V13.7317H32.9062H34.8438H44.6969C44.8243 13.7316 44.9504 13.7566 45.0681 13.8053C45.1858 13.854 45.2927 13.9255 45.3828 14.0155L47.0364 15.6692H42.5938C42.0799 15.6692 41.5871 15.8733 41.2237 16.2367C40.8604 16.6 40.6562 17.0928 40.6562 17.6067V26.3254C40.6562 26.8393 40.8604 27.3321 41.2237 27.6955C41.5871 28.0588 42.0799 28.2629 42.5938 28.2629H57.125V36.0129C57.125 36.2699 57.0229 36.5163 56.8413 36.698C56.6596 36.8796 56.4132 36.9817 56.1562 36.9817H53.8462V38.9192H56.1562C56.927 38.9192 57.6663 38.613 58.2113 38.068C58.7563 37.5229 59.0625 36.7837 59.0625 36.0129V25.3567C59.0624 25.0998 58.9603 24.8534 58.7787 24.6718ZM42.5938 17.6067V26.3254H57.125V25.7578L48.9739 17.6067H42.5938Z" />
<path d="M13.7846 36.9817H11.5938C11.3368 36.9817 11.0904 36.8796 10.9087 36.698C10.7271 36.5163 10.625 36.2699 10.625 36.0129V27.2942H8.6875V36.0129C8.6875 36.7837 8.99369 37.5229 9.53872 38.068C10.0837 38.613 10.823 38.9192 11.5938 38.9192H13.7846V36.9817Z" />
<path d="M40.9692 36.9817H26.6615V38.9192H40.9692V36.9817Z" />
<path d="M21.2812 36.9818H19.3438V38.9193H21.2812V36.9818Z" />
<path d="M48.4062 36.9818H46.4688V38.9193H48.4062V36.9818Z" />
<path d="M13.5312 25.3568C16.0221 25.3568 18.4569 24.6181 20.528 23.2343C22.599 21.8505 24.2132 19.8836 25.1664 17.5824C26.1195 15.2812 26.3689 12.749 25.883 10.3061C25.3971 7.86314 24.1976 5.61915 22.4364 3.85788C20.6751 2.09661 18.4311 0.897174 15.9882 0.411242C13.5452 -0.0746911 11.013 0.174707 8.71183 1.1279C6.41062 2.08109 4.44375 3.69526 3.05993 5.76629C1.67611 7.83733 0.9375 10.2722 0.9375 12.763C0.941346 16.1019 2.26942 19.3029 4.63037 21.6639C6.99132 24.0248 10.1924 25.3529 13.5312 25.3568ZM13.5312 2.10676C15.6389 2.10676 17.6991 2.73173 19.4515 3.90266C21.204 5.07358 22.5698 6.73786 23.3763 8.68503C24.1829 10.6322 24.3939 12.7748 23.9827 14.8419C23.5716 16.909 22.5567 18.8078 21.0664 20.2981C19.5761 21.7884 17.6773 22.8033 15.6102 23.2145C13.5431 23.6257 11.4005 23.4146 9.45328 22.6081C7.5061 21.8015 5.84183 20.4357 4.6709 18.6833C3.49998 16.9309 2.875 14.8706 2.875 12.763C2.87833 9.93782 4.00211 7.22929 5.99982 5.23158C7.99754 3.23387 10.7061 2.11009 13.5312 2.10676Z" />
<path d="M13.5312 21.4818C13.7882 21.4818 14.0345 21.3797 14.2162 21.198C14.84 20.5741 20.3125 14.9815 20.3125 10.8256C20.3125 9.02706 19.598 7.30222 18.3263 6.03049C17.0546 4.75876 15.3297 4.04431 13.5312 4.04431C11.7328 4.04431 10.0079 4.75876 8.73618 6.03049C7.46445 7.30222 6.75 9.02706 6.75 10.8256C6.75 14.9815 12.2225 20.5741 12.8463 21.198C13.028 21.3797 13.2743 21.4818 13.5312 21.4818ZM13.5312 5.98181C14.8154 5.98335 16.0466 6.49416 16.9546 7.40221C17.8626 8.31026 18.3735 9.54139 18.375 10.8256C18.375 13.3114 15.3263 17.1525 13.5312 19.1093C11.7362 17.1525 8.6875 13.3114 8.6875 10.8256C8.68904 9.54139 9.19985 8.31026 10.1079 7.40221C11.0159 6.49416 12.2471 5.98335 13.5312 5.98181Z" />
<path d="M16.4375 10.8256C16.4375 10.2508 16.2671 9.68887 15.9477 9.21094C15.6284 8.73301 15.1745 8.36051 14.6434 8.14054C14.1124 7.92057 13.528 7.86302 12.9643 7.97516C12.4005 8.08729 11.8827 8.36409 11.4762 8.77053C11.0698 9.17698 10.793 9.69482 10.6808 10.2586C10.5687 10.8223 10.6263 11.4067 10.8462 11.9377C11.0662 12.4688 11.4387 12.9227 11.9166 13.242C12.3946 13.5614 12.9564 13.7318 13.5313 13.7318C14.302 13.7318 15.0413 13.4256 15.5863 12.8806C16.1313 12.3356 16.4375 11.5963 16.4375 10.8256ZM12.5625 10.8256C12.5625 10.634 12.6193 10.4467 12.7258 10.2874C12.8322 10.128 12.9835 10.0039 13.1605 9.93055C13.3375 9.85723 13.5323 9.83805 13.7202 9.87543C13.9082 9.91281 14.0808 10.0051 14.2163 10.1406C14.3517 10.276 14.444 10.4486 14.4814 10.6366C14.5188 10.8245 14.4996 11.0193 14.4263 11.1963C14.3529 11.3733 14.2288 11.5246 14.0695 11.631C13.9101 11.7375 13.7229 11.7943 13.5313 11.7943C13.2743 11.7943 13.0279 11.6922 12.8462 11.5106C12.6646 11.3289 12.5625 11.0825 12.5625 10.8256Z" />
<path d="M25.9475 38.0371C25.9475 41.1724 23.4059 43.7141 20.2706 43.7141C17.1353 43.7141 14.5937 41.1724 14.5937 38.0371C14.5937 34.9019 17.1353 32.3602 20.2706 32.3602C23.4059 32.3602 25.9475 34.9019 25.9475 38.0371Z" stroke="white" stroke-width="2"/>
<path d="M53.1322 38.0371C53.1322 41.1724 50.5905 43.7141 47.4552 43.7141C44.32 43.7141 41.7783 41.1724 41.7783 38.0371C41.7783 34.9019 44.32 32.3602 47.4552 32.3602C50.5905 32.3602 53.1322 34.9019 53.1322 38.0371Z" stroke="white" stroke-width="2"/>
</svg>
