<svg width="50" height="50" viewBox="0 0 50 50" fill="none" xmlns="http://www.w3.org/2000/svg">
<path d="M46.9203 28.54V28.5931L46.9537 28.6344C48.764 30.8731 49.85 33.7202 49.85 36.8164C49.85 44.0028 44.0028 49.85 36.8164 49.85C32.3075 49.85 28.326 47.548 25.9844 44.0571L25.9398 43.9906H25.8598H1.46484C0.738589 43.9906 0.15 43.402 0.15 42.6758V4.49219C0.15 3.76593 0.738589 3.17734 1.46484 3.17734H8.88672H9.03672V3.02734V1.46484C9.03672 0.738589 9.62531 0.15 10.3516 0.15C11.0778 0.15 11.6664 0.738589 11.6664 1.46484V3.02734V3.17734H11.8164H17.6758H17.8258V3.02734V1.46484C17.8258 0.738589 18.4144 0.15 19.1406 0.15C19.8669 0.15 20.4555 0.738589 20.4555 1.46484V3.02734V3.17734H20.6055H26.4648H26.6148V3.02734V1.46484C26.6148 0.738589 27.2034 0.15 27.9297 0.15C28.6559 0.15 29.2445 0.738589 29.2445 1.46484V3.02734V3.17734H29.3945H35.2539H35.4039V3.02734V1.46484C35.4039 0.738589 35.9925 0.15 36.7188 0.15C37.445 0.15 38.0336 0.738589 38.0336 1.46484V3.02734V3.17734H38.1836H45.6055C46.3317 3.17734 46.9203 3.76593 46.9203 4.49219V28.54ZM9.03672 5.95703V5.80703H8.88672H2.92969H2.77969V5.95703V11.8164V11.9664H2.92969H44.1406H44.2906V11.8164V5.95703V5.80703H44.1406H38.1836H38.0336V5.95703V7.42188C38.0336 8.14813 37.445 8.73672 36.7188 8.73672C35.9925 8.73672 35.4039 8.14813 35.4039 7.42188V5.95703V5.80703H35.2539H29.3945H29.2445V5.95703V7.42188C29.2445 8.14813 28.6559 8.73672 27.9297 8.73672C27.2034 8.73672 26.6148 8.14813 26.6148 7.42188V5.95703V5.80703H26.4648H20.6055H20.4555V5.95703V7.42188C20.4555 8.14813 19.8669 8.73672 19.1406 8.73672C18.4144 8.73672 17.8258 8.14813 17.8258 7.42188V5.95703V5.80703H17.6758H11.8164H11.6664V5.95703V7.42188C11.6664 8.14813 11.0778 8.73672 10.3516 8.73672C9.62531 8.73672 9.03672 8.14813 9.03672 7.42188V5.95703ZM2.77969 41.2109V41.3609H2.92969H24.387H24.5994L24.5283 41.1608C24.201 40.2385 23.9752 39.2686 23.8639 38.2647L23.8491 38.1312H23.7148H22.168C21.4417 38.1312 20.8531 37.5427 20.8531 36.8164C20.8531 36.0902 21.4417 35.5016 22.168 35.5016H23.7148H23.8491L23.8639 35.3681C23.9752 34.3643 24.2014 33.3944 24.5284 32.472L24.5993 32.2719H24.387H22.168C21.4417 32.2719 20.8531 31.6833 20.8531 30.957C20.8531 30.2308 21.4417 29.6422 22.168 29.6422H25.0977C25.3103 29.6422 25.5104 29.6937 25.6885 29.7836L25.8085 29.8442L25.8818 29.7315C28.2083 26.1535 32.2407 23.7828 36.8164 23.7828C39.4937 23.7828 41.9848 24.5947 44.0571 25.9844L44.2906 26.141V25.8598V14.7461V14.5961H44.1406H2.92969H2.77969V14.7461V41.2109ZM26.4125 36.8164C26.4125 42.5534 31.0794 47.2203 36.8164 47.2203C42.5534 47.2203 47.2203 42.5534 47.2203 36.8164C47.2203 31.0794 42.5534 26.4125 36.8164 26.4125C31.0794 26.4125 26.4125 31.0794 26.4125 36.8164Z" fill="white" stroke="#A62525" stroke-width="0.3"/>
<path d="M38.1312 35.3516V35.5016H38.2812H42.6758C43.402 35.5016 43.9906 36.0902 43.9906 36.8164C43.9906 37.5427 43.402 38.1313 42.6758 38.1313H36.8164C36.0902 38.1313 35.5016 37.5427 35.5016 36.8164V30.957C35.5016 30.2308 36.0902 29.6422 36.8164 29.6422C37.5427 29.6422 38.1312 30.2308 38.1312 30.957V35.3516Z" fill="white" stroke="#A62525" stroke-width="0.3"/>
<path d="M10.3516 17.9234H13.2812C14.0075 17.9234 14.5961 18.512 14.5961 19.2383C14.5961 19.9645 14.0075 20.5531 13.2812 20.5531H10.3516C9.62531 20.5531 9.03672 19.9645 9.03672 19.2383C9.03672 18.512 9.62531 17.9234 10.3516 17.9234Z" fill="white" stroke="#A62525" stroke-width="0.3"/>
<path d="M10.3516 23.7828H13.2812C14.0075 23.7828 14.5961 24.3714 14.5961 25.0977C14.5961 25.8239 14.0075 26.4125 13.2812 26.4125H10.3516C9.62531 26.4125 9.03672 25.8239 9.03672 25.0977C9.03672 24.3714 9.62531 23.7828 10.3516 23.7828Z" fill="white" stroke="#A62525" stroke-width="0.3"/>
<path d="M10.3516 29.6422H13.2812C14.0075 29.6422 14.5961 30.2308 14.5961 30.957C14.5961 31.6833 14.0075 32.2719 13.2812 32.2719H10.3516C9.62531 32.2719 9.03672 31.6833 9.03672 30.957C9.03672 30.2308 9.62531 29.6422 10.3516 29.6422Z" fill="white" stroke="#A62525" stroke-width="0.3"/>
<path d="M25.0977 20.5531H22.168C21.4417 20.5531 20.8531 19.9645 20.8531 19.2383C20.8531 18.512 21.4417 17.9234 22.168 17.9234H25.0977C25.8239 17.9234 26.4125 18.512 26.4125 19.2383C26.4125 19.9645 25.8239 20.5531 25.0977 20.5531Z" fill="white" stroke="#A62525" stroke-width="0.3"/>
<path d="M25.0977 26.4125H22.168C21.4417 26.4125 20.8531 25.8239 20.8531 25.0977C20.8531 24.3714 21.4417 23.7828 22.168 23.7828H25.0977C25.8239 23.7828 26.4125 24.3714 26.4125 25.0977C26.4125 25.8239 25.8239 26.4125 25.0977 26.4125Z" fill="white" stroke="#A62525" stroke-width="0.3"/>
<path d="M10.3516 35.5016H13.2812C14.0075 35.5016 14.5961 36.0902 14.5961 36.8164C14.5961 37.5427 14.0075 38.1312 13.2812 38.1312H10.3516C9.62531 38.1312 9.03672 37.5427 9.03672 36.8164C9.03672 36.0902 9.62531 35.5016 10.3516 35.5016Z" fill="white" stroke="#A62525" stroke-width="0.3"/>
<path d="M36.8164 20.5531H33.8867C33.1605 20.5531 32.5719 19.9645 32.5719 19.2383C32.5719 18.512 33.1605 17.9234 33.8867 17.9234H36.8164C37.5427 17.9234 38.1312 18.512 38.1312 19.2383C38.1312 19.9645 37.5427 20.5531 36.8164 20.5531Z" fill="white" stroke="#A62525" stroke-width="0.3"/>
</svg>
