<svg width="40" height="47" viewBox="0 0 40 47" fill="none" xmlns="http://www.w3.org/2000/svg">
<path d="M39.5813 38.1623H36.3421V17.5124C36.3421 17.2872 36.1525 17.1008 35.9234 17.1008H27.3672H23.2668H15.1294V2.71811C15.1294 1.90268 14.4657 1.24256 13.6441 1.24256H10.7604V1.06395C10.7525 0.473728 10.2706 0 9.67806 0C9.09342 0 8.6115 0.465962 8.60359 1.04841H2.16472C2.15682 0.465962 1.6828 0 1.09026 0C0.489828 0 0 0.473728 0 1.06395V4.97802C0 5.56824 0.489828 6.04197 1.09026 6.04197C1.6749 6.04197 2.15682 5.57601 2.16472 4.99356H8.60359C8.6115 5.57601 9.09342 6.04197 9.67806 6.04197C10.2706 6.04197 10.7525 5.56824 10.7525 4.97802V4.79941H11.2739V33.0677C8.17697 33.8366 5.87004 36.6246 5.87004 39.9329C5.87004 43.8315 9.07762 47 13.012 47C16.2275 47 18.9453 44.8799 19.8301 41.9754H39.5813C39.8104 41.9754 40 41.789 40 41.5638V38.5661C40 38.3486 39.8104 38.1623 39.5813 38.1623ZM26.9485 17.9162V28.1441H25.7239V17.9162H26.9485ZM24.8864 17.9162V28.1441H23.6777V17.9162H24.8864ZM22.8481 17.9162V28.5557C22.8481 28.7809 23.0377 28.9673 23.2668 28.9673H27.3672C27.5963 28.9673 27.7859 28.7809 27.7859 28.5557V17.9162H35.5046V38.1623H19.917C19.8933 38.0768 19.8617 37.9914 19.8301 37.906C19.8064 37.8283 19.7827 37.7507 19.7511 37.673C19.5694 37.1294 19.3166 36.6168 19.0164 36.1353C18.969 36.0577 18.9137 35.9722 18.8584 35.8946C18.7715 35.7703 18.6767 35.6538 18.5819 35.5296C18.5029 35.4364 18.4239 35.3354 18.3449 35.25C18.2579 35.149 18.171 35.0481 18.0762 34.9549C17.9024 34.7763 17.7207 34.6054 17.5311 34.4501C17.4837 34.4113 17.4363 34.3802 17.3889 34.3491C17.2151 34.2094 17.0334 34.0851 16.8438 33.9608C16.7885 33.922 16.7253 33.8909 16.67 33.8521C16.4566 33.7279 16.2433 33.6114 16.0221 33.5104C15.9984 33.5026 15.9747 33.4871 15.951 33.4793C15.6824 33.3551 15.4059 33.2464 15.1215 33.1532V17.9162H22.8481ZM1.33518 4.97802C1.33518 5.11005 1.22457 5.22654 1.09026 5.22654C0.948054 5.22654 0.829548 5.11781 0.829548 4.97802V1.06395C0.829548 0.924157 0.940154 0.815433 1.09026 0.815433C1.22457 0.815433 1.33518 0.924157 1.33518 1.06395V1.46001V4.58196V4.97802ZM2.16472 1.86385H8.60359V4.17036H2.16472V1.86385ZM9.92297 4.97802C9.92297 5.11005 9.81236 5.22654 9.67806 5.22654C9.54375 5.22654 9.43314 5.11781 9.43314 4.97802V4.58196V1.46001V1.06395C9.43314 0.931923 9.54375 0.815433 9.67806 0.815433C9.81236 0.815433 9.92297 0.924157 9.92297 1.06395V1.65416V4.38781V4.97802ZM12.1114 32.9047V4.38781C12.1114 4.16259 11.9218 3.97621 11.6927 3.97621H10.7604V2.06576H13.6441C14.0075 2.06576 14.2998 2.36087 14.2998 2.71811V17.5124V32.9668C14.0944 32.928 13.889 32.8969 13.6757 32.8814C13.4545 32.8581 13.2333 32.8503 13.0199 32.8503C12.7276 32.8503 12.4432 32.8736 12.1588 32.9047C12.1351 32.9047 12.1193 32.9047 12.1114 32.9047ZM13.012 46.1846C9.53585 46.1846 6.69959 43.381 6.69959 39.9329C6.69959 36.8964 8.88011 34.3647 11.7638 33.79C12.0008 33.7434 12.2299 33.7123 12.459 33.6968C12.5143 33.689 12.5775 33.689 12.6328 33.689C12.7987 33.6813 12.9567 33.6735 13.1227 33.6735C13.2017 33.6735 13.2807 33.6813 13.3597 33.689C13.5256 33.6968 13.6836 33.7123 13.8416 33.7356C13.8811 33.7434 13.9127 33.7434 13.9522 33.7512C14.1655 33.7822 14.3709 33.8288 14.5842 33.8832C15.1373 34.023 15.6587 34.2404 16.1406 34.52C16.188 34.5511 16.2354 34.5744 16.2828 34.6054C16.4645 34.7141 16.6305 34.8306 16.7964 34.9549C16.8517 34.9937 16.907 35.0326 16.9623 35.0791C17.144 35.2267 17.3099 35.382 17.4758 35.5451C17.5548 35.6305 17.6338 35.716 17.7128 35.8014C17.7918 35.8946 17.8708 35.9878 17.9498 36.0887C18.0288 36.1975 18.1157 36.2984 18.1947 36.4149C18.25 36.4926 18.2896 36.5702 18.3449 36.6479C18.4871 36.8731 18.6135 37.1061 18.7241 37.3468C18.7557 37.4245 18.7952 37.5021 18.8268 37.5798C18.8821 37.7274 18.9374 37.8672 18.9927 38.0225C19.0164 38.1079 19.0401 38.1933 19.0638 38.2788C19.1507 38.5972 19.2218 38.9233 19.2534 39.2573C19.2534 39.2728 19.2613 39.2883 19.2613 39.3039C19.285 39.5135 19.2929 39.7232 19.2929 39.9407C19.2929 40.1737 19.2771 40.4066 19.2534 40.6319C19.2376 40.7561 19.2139 40.8804 19.1981 41.0046C19.1823 41.0978 19.1665 41.191 19.1507 41.2764C18.5345 44.0722 16.0142 46.1846 13.012 46.1846ZM39.1626 41.1599H20.0356C20.0593 41.0124 20.0751 40.8648 20.0909 40.7173C20.0909 40.6862 20.0988 40.6552 20.0988 40.6319C20.1225 40.3989 20.1383 40.1659 20.1383 39.9329C20.1383 39.6456 20.1146 39.366 20.083 39.0864C20.0751 39.0476 20.083 39.0165 20.0751 38.9855H35.9234H39.1705V41.1599H39.1626Z" fill="#364859"/>
<path d="M13.0121 34.6909C12.783 34.6909 12.5934 34.8773 12.5934 35.1025C12.5934 35.3277 12.783 35.5141 13.0121 35.5141C15.4533 35.5141 17.4443 37.4945 17.4443 39.933C17.4443 40.1582 17.6339 40.3446 17.863 40.3446C18.0921 40.3446 18.2817 40.1582 18.2817 39.933C18.2738 37.044 15.9116 34.6909 13.0121 34.6909Z" fill="#364859"/>
<path d="M13.0121 37.6108C11.7164 37.6108 10.6656 38.6515 10.6656 39.9329C10.6656 41.2143 11.7164 42.2549 13.0121 42.2549C14.3078 42.2549 15.3585 41.2143 15.3585 39.9329C15.3585 38.6515 14.2999 37.6108 13.0121 37.6108ZM13.0121 41.4395C12.1667 41.4395 11.5031 40.7794 11.5031 39.9329C11.5031 39.0864 12.1667 38.4263 13.0121 38.4263C13.8574 38.4263 14.5211 39.0864 14.5211 39.9329C14.5211 40.7716 13.8574 41.4395 13.0121 41.4395Z" fill="#364859"/>
<path d="M31.8152 37.2924H34.2722C34.5014 37.2924 34.691 37.106 34.691 36.8808V34.0696C34.691 33.8443 34.5014 33.658 34.2722 33.658H31.8152C31.5861 33.658 31.3965 33.8443 31.3965 34.0696V36.8886C31.4044 37.1138 31.5861 37.2924 31.8152 37.2924ZM32.2339 34.4812H33.8535V36.477H32.2339V34.4812Z" fill="#364859"/>
<path d="M24.0885 37.2924H26.5456C26.7747 37.2924 26.9643 37.106 26.9643 36.8808V34.0696C26.9643 33.8443 26.7747 33.658 26.5456 33.658H24.0885C23.8594 33.658 23.6698 33.8443 23.6698 34.0696V36.8886C23.6698 37.1138 23.8594 37.2924 24.0885 37.2924ZM24.4993 34.4812H26.1268V36.477H24.4993V34.4812Z" fill="#364859"/>
<path d="M27.9596 37.2924H30.4009C30.63 37.2924 30.8196 37.106 30.8196 36.8808V34.0696C30.8196 33.8443 30.63 33.658 30.4009 33.658H27.9596C27.7305 33.658 27.5409 33.8443 27.5409 34.0696V36.8886C27.5409 37.1138 27.7305 37.2924 27.9596 37.2924ZM28.3783 34.4812H29.9821V36.477H28.3783V34.4812Z" fill="#364859"/>
</svg>
