<svg width="52" height="60" viewBox="0 0 52 60" fill="none" xmlns="http://www.w3.org/2000/svg">
<path d="M51.3542 48.7178H47.2242V22.3562C47.2242 22.0687 46.9825 21.8308 46.6904 21.8308H35.7812H30.5533H20.178V3.46993C20.178 2.42895 19.3319 1.58625 18.2843 1.58625H14.6076V1.35823C14.5975 0.604759 13.9831 0 13.2276 0C12.4822 0 11.8677 0.594845 11.8576 1.3384H3.64809C3.63801 0.594845 3.03363 0 2.27815 0C1.51259 0 0.888062 0.604759 0.888062 1.35823V6.35492C0.888062 7.10839 1.51259 7.71315 2.27815 7.71315C3.02355 7.71315 3.63801 7.11831 3.64809 6.37475H11.8576C11.8677 7.11831 12.4822 7.71315 13.2276 7.71315C13.9831 7.71315 14.5975 7.10839 14.5975 6.35492V6.1269H15.2623V42.2141C11.3137 43.1956 8.37236 46.7548 8.37236 50.9782C8.37236 55.9551 12.462 60 17.4784 60C21.5782 60 25.0433 57.2935 26.1715 53.5856H51.3542C51.6463 53.5856 51.8881 53.3477 51.8881 53.0602V49.2333C51.8881 48.9557 51.6463 48.7178 51.3542 48.7178ZM35.2473 22.8718V35.9286H33.686V22.8718H35.2473ZM32.6183 22.8718V35.9286H31.0771V22.8718H32.6183ZM30.0194 22.8718V36.4541C30.0194 36.7416 30.2612 36.9795 30.5533 36.9795H35.7812C36.0733 36.9795 36.3151 36.7416 36.3151 36.4541V22.8718H46.1565V48.7178H26.2823C26.2521 48.6087 26.2118 48.4997 26.1715 48.3906C26.1413 48.2915 26.1111 48.1923 26.0708 48.0932C25.8391 47.3992 25.5167 46.7449 25.134 46.1302C25.0735 46.0311 25.003 45.922 24.9325 45.8229C24.8217 45.6642 24.7008 45.5155 24.5799 45.3569C24.4792 45.2379 24.3785 45.1091 24.2778 45C24.1669 44.8711 24.0561 44.7422 23.9353 44.6233C23.7137 44.3952 23.482 44.1771 23.2402 43.9789C23.1798 43.9293 23.1193 43.8896 23.0589 43.85C22.8373 43.6715 22.6056 43.5129 22.3639 43.3543C22.2934 43.3047 22.2128 43.265 22.1423 43.2155C21.8703 43.0568 21.5983 42.9081 21.3163 42.7792C21.286 42.7693 21.2558 42.7495 21.2256 42.7396C20.8831 42.581 20.5306 42.4422 20.1679 42.3232V22.8718H30.0194ZM2.59041 6.35492C2.59041 6.52346 2.44939 6.67218 2.27815 6.67218C2.09683 6.67218 1.94573 6.53338 1.94573 6.35492V1.35823C1.94573 1.17978 2.08676 1.04098 2.27815 1.04098C2.44939 1.04098 2.59041 1.17978 2.59041 1.35823V1.86385V5.84931V6.35492ZM3.64809 2.37938H11.8576V5.32386H3.64809V2.37938ZM13.5398 6.35492C13.5398 6.52346 13.3988 6.67218 13.2276 6.67218C13.0563 6.67218 12.9153 6.53338 12.9153 6.35492V5.84931V1.86385V1.35823C12.9153 1.18969 13.0563 1.04098 13.2276 1.04098C13.3988 1.04098 13.5398 1.17978 13.5398 1.35823V2.1117V5.60145V6.35492ZM16.3301 42.006V5.60145C16.3301 5.31395 16.0883 5.07601 15.7962 5.07601H14.6076V2.63715H18.2843C18.7476 2.63715 19.1203 3.01388 19.1203 3.46993V22.3562V42.0853C18.8584 42.0357 18.5965 41.996 18.3246 41.9762C18.0425 41.9465 17.7605 41.9366 17.4885 41.9366C17.1158 41.9366 16.7532 41.9663 16.3905 42.006C16.3603 42.006 16.3402 42.006 16.3301 42.006ZM17.4784 58.959C13.0463 58.959 9.43003 55.38 9.43003 50.9782C9.43003 47.1018 12.2102 43.8698 15.8869 43.1362C16.1891 43.0767 16.4812 43.037 16.7733 43.0172C16.8438 43.0073 16.9244 43.0073 16.9949 43.0073C17.2064 42.9974 17.4079 42.9874 17.6194 42.9874C17.7202 42.9874 17.8209 42.9974 17.9216 43.0073C18.1332 43.0172 18.3346 43.037 18.5361 43.0668C18.5865 43.0767 18.6268 43.0767 18.6771 43.0866C18.9491 43.1262 19.211 43.1857 19.483 43.2551C20.1881 43.4336 20.8529 43.7112 21.4674 44.0681C21.5278 44.1077 21.5882 44.1375 21.6487 44.1771C21.8804 44.3159 22.0919 44.4646 22.3034 44.6233C22.3739 44.6728 22.4445 44.7224 22.515 44.7819C22.7466 44.9703 22.9582 45.1685 23.1697 45.3767C23.2704 45.4858 23.3712 45.5948 23.4719 45.7039C23.5726 45.8229 23.6734 45.9418 23.7741 46.0707C23.8748 46.2095 23.9856 46.3384 24.0864 46.4871C24.1569 46.5863 24.2072 46.6854 24.2778 46.7845C24.4591 47.072 24.6202 47.3695 24.7613 47.6768C24.8016 47.7759 24.8519 47.8751 24.8922 47.9742C24.9627 48.1626 25.0332 48.341 25.1037 48.5393C25.134 48.6484 25.1642 48.7574 25.1944 48.8665C25.3052 49.273 25.3959 49.6894 25.4362 50.1157C25.4362 50.1355 25.4462 50.1553 25.4462 50.1752C25.4764 50.4428 25.4865 50.7105 25.4865 50.9881C25.4865 51.2855 25.4664 51.583 25.4362 51.8705C25.416 52.0291 25.3858 52.1877 25.3656 52.3463C25.3455 52.4653 25.3254 52.5843 25.3052 52.6933C24.5195 56.2624 21.3062 58.959 17.4784 58.959ZM50.8203 52.5446H26.4334C26.4636 52.3563 26.4838 52.1679 26.5039 51.9795C26.5039 51.9399 26.514 51.9002 26.514 51.8705C26.5442 51.573 26.5643 51.2756 26.5643 50.9782C26.5643 50.6114 26.5341 50.2545 26.4938 49.8976C26.4838 49.848 26.4938 49.8083 26.4838 49.7687H46.6904H50.8304V52.5446H50.8203Z" fill="#364859"/>
<path d="M17.4784 44.2861C17.1863 44.2861 16.9445 44.5241 16.9445 44.8116C16.9445 45.0991 17.1863 45.337 17.4784 45.337C20.591 45.337 23.1294 47.8651 23.1294 50.9781C23.1294 51.2656 23.3711 51.5036 23.6633 51.5036C23.9554 51.5036 24.1971 51.2656 24.1971 50.9781C24.1871 47.2901 21.1752 44.2861 17.4784 44.2861Z" fill="#364859"/>
<path d="M17.4785 48.0142C15.8265 48.0142 14.4868 49.3426 14.4868 50.9785C14.4868 52.6143 15.8265 53.9428 17.4785 53.9428C19.1304 53.9428 20.4702 52.6143 20.4702 50.9785C20.4702 49.3426 19.1204 48.0142 17.4785 48.0142ZM17.4785 52.9018C16.4006 52.9018 15.5545 52.0591 15.5545 50.9785C15.5545 49.8978 16.4006 49.0551 17.4785 49.0551C18.5563 49.0551 19.4024 49.8978 19.4024 50.9785C19.4024 52.0492 18.5563 52.9018 17.4785 52.9018Z" fill="#364859"/>
<path d="M41.4525 47.6075H44.5852C44.8773 47.6075 45.1191 47.3696 45.1191 47.0821V43.4932C45.1191 43.2057 44.8773 42.9678 44.5852 42.9678H41.4525C41.1603 42.9678 40.9186 43.2057 40.9186 43.4932V47.092C40.9287 47.3795 41.1603 47.6075 41.4525 47.6075ZM41.9863 44.0187H44.0513V46.5666H41.9863V44.0187Z" fill="#364859"/>
<path d="M31.6009 47.6075H34.7336C35.0257 47.6075 35.2675 47.3696 35.2675 47.0821V43.4932C35.2675 43.2057 35.0257 42.9678 34.7336 42.9678H31.6009C31.3088 42.9678 31.067 43.2057 31.067 43.4932V47.092C31.067 47.3795 31.3088 47.6075 31.6009 47.6075ZM32.1247 44.0187H34.1997V46.5666H32.1247V44.0187Z" fill="#364859"/>
<path d="M36.5366 47.6075H39.6491C39.9413 47.6075 40.183 47.3696 40.183 47.0821V43.4932C40.183 43.2057 39.9413 42.9678 39.6491 42.9678H36.5366C36.2444 42.9678 36.0027 43.2057 36.0027 43.4932V47.092C36.0027 47.3795 36.2444 47.6075 36.5366 47.6075ZM37.0704 44.0187H39.1153V46.5666H37.0704V44.0187Z" fill="#364859"/>
</svg>
