<svg width="36" height="36" viewBox="0 0 36 36" xmlns="http://www.w3.org/2000/svg">
<g clip-path="url(#clip0)">
<path d="M34.8326 15.9515H33.3932C33.3022 15.2631 33.1644 14.5788 32.9819 13.9086L34.3069 13.3502C34.5943 13.2291 34.8172 13.0034 34.9348 12.7145C35.0523 12.4257 35.0503 12.1084 34.9292 11.8212L34.2447 10.1969C33.9947 9.60375 33.3086 9.32451 32.7157 9.57465L31.3894 10.1336C31.0699 9.5912 30.7158 9.06574 30.3321 8.56498L31.3511 7.54591C31.8062 7.09081 31.8062 6.35036 31.3511 5.89519L30.1047 4.64893C29.8843 4.42839 29.5911 4.30697 29.2793 4.30697C28.9675 4.30697 28.6743 4.42839 28.4539 4.64886L27.4349 5.66785C26.8835 5.24558 26.3023 4.85922 25.7001 4.5146L26.2428 3.18121C26.4854 2.58505 26.1977 1.90268 25.6016 1.66012L23.9692 0.995707C23.3731 0.753146 22.6906 1.04067 22.4479 1.63683L21.9057 2.9691C21.295 2.81078 20.6729 2.6895 20.0485 2.60687V1.16728C20.0485 0.523632 19.5249 0 18.8813 0H17.1187C16.4751 0 15.9514 0.523632 15.9514 1.16728V2.6068C15.263 2.69777 14.5786 2.83561 13.9086 3.01813L13.3501 1.69302C13.1001 1.09994 12.4144 0.820556 11.8211 1.07076L10.197 1.75531C9.90966 1.87645 9.68674 2.1021 9.56917 2.39096C9.45161 2.67982 9.45364 2.99708 9.57471 3.28433L10.1337 4.61063C9.59134 4.93007 9.06595 5.28423 8.56505 5.66792L7.54612 4.649C7.32566 4.42846 7.03252 4.30704 6.72066 4.30704C6.40893 4.30704 6.11573 4.42846 5.89533 4.64893L4.64886 5.89526C4.19383 6.35036 4.19383 7.09088 4.64886 7.54598L5.66792 8.56505C5.24565 9.11639 4.85936 9.69747 4.5146 10.2998L3.18135 9.75716C2.58491 9.51439 1.90268 9.8022 1.66019 10.3983L0.995778 12.0308C0.753146 12.6269 1.04074 13.3094 1.6369 13.552L2.9691 14.0942C2.81078 14.7048 2.6895 15.3269 2.60687 15.9514H1.16728C0.523632 15.9515 0 16.4751 0 17.1187V18.8813C0 19.5249 0.523702 20.0485 1.16735 20.0485H2.6068C2.69784 20.7369 2.83561 21.4212 3.01813 22.0914L1.69309 22.6498C1.4057 22.7709 1.18278 22.9966 1.06522 23.2855C0.947658 23.5743 0.949692 23.8916 1.07076 24.1788L1.75531 25.803C2.0053 26.3962 2.69132 26.6752 3.28433 26.4253L4.61056 25.8663C4.93014 26.4087 5.28423 26.9341 5.66785 27.435L4.64886 28.454C4.19383 28.9091 4.19383 29.6496 4.64893 30.1047L5.89526 31.351C6.11573 31.5715 6.40886 31.693 6.72066 31.693C7.03245 31.693 7.32566 31.5715 7.54612 31.3511L8.56512 30.3321C9.11646 30.7544 9.69768 31.1407 10.2999 31.4853L9.75716 32.8187C9.51467 33.4148 9.80227 34.0972 10.3984 34.3398L12.0309 35.0042C12.6272 35.2469 13.3095 34.9591 13.5521 34.3631L14.0943 33.0308C14.705 33.1892 15.3271 33.3104 15.9515 33.3931V34.8326C15.9515 35.4763 16.4751 35.9999 17.1187 35.9999H18.8813C19.525 35.9999 20.0487 35.4763 20.0487 34.8326V33.3931C20.7372 33.3021 21.4216 33.1642 22.0914 32.9817L22.6499 34.3068C22.7711 34.5942 22.9967 34.8171 23.2856 34.9346C23.5742 35.0521 23.8916 35.0502 24.179 34.9291L25.803 34.2445C26.0904 34.1234 26.3133 33.8978 26.4309 33.6089C26.5485 33.32 26.5464 33.0028 26.4254 32.7155L25.8664 31.3892C26.4087 31.0698 26.9341 30.7156 27.435 30.3319L28.4539 31.3509C28.6744 31.5714 28.9675 31.6928 29.2794 31.6928C29.5911 31.6928 29.8843 31.5714 30.1047 31.3509L31.3512 30.1046C31.8062 29.6495 31.8062 28.909 31.3512 28.4539L30.3321 27.4348C30.7544 26.8835 31.1407 26.3024 31.4855 25.7001L32.8188 26.2427C33.1075 26.3603 33.425 26.3583 33.7122 26.2372C33.9994 26.1161 34.2223 25.8904 34.3399 25.6015L35.0043 23.969C35.2469 23.3729 34.9593 22.6904 34.3632 22.4478L33.031 21.9056C33.1893 21.295 33.3106 20.6729 33.3932 20.0484H34.8327C35.4764 20.0484 36.0001 19.5248 36.0001 18.8811V17.1185C36 16.4751 35.4763 15.9515 34.8326 15.9515ZM34.9478 18.8813C34.9478 18.9447 34.8962 18.9964 34.8326 18.9964H33.0207C32.6968 18.9964 32.4264 19.2395 32.3918 19.5618C32.3043 20.3768 32.1456 21.1904 31.92 21.9807C31.8314 22.2917 31.9904 22.6182 32.2898 22.7401L33.9663 23.4225C34.0251 23.4464 34.0535 23.5137 34.0296 23.5726L33.3651 25.205C33.3503 25.2416 33.3232 25.2593 33.3032 25.2678C33.2833 25.2762 33.2517 25.2832 33.2151 25.2682L31.5377 24.5856C31.2381 24.4635 30.896 24.5865 30.7424 24.8711C30.3242 25.6451 29.832 26.3853 29.2796 27.0715C29.0763 27.324 29.0958 27.687 29.3248 27.9158L30.6069 29.1979C30.6518 29.2428 30.6518 29.3159 30.607 29.3607L29.3605 30.607C29.3327 30.6349 29.3009 30.6407 29.2792 30.6407C29.2574 30.6407 29.2256 30.6349 29.1978 30.607L27.9158 29.3251C27.6868 29.0959 27.3239 29.0765 27.0714 29.2798C26.4311 29.7955 25.7435 30.2588 25.0281 30.657C24.7453 30.8142 24.6267 31.1575 24.7523 31.4556L25.4555 33.1244C25.4708 33.1607 25.4643 33.1923 25.4561 33.2124C25.4479 33.2326 25.4306 33.2598 25.3942 33.2752L23.77 33.9597C23.7117 33.9845 23.6439 33.9568 23.6193 33.8983L22.9164 32.2309C22.7909 31.9328 22.4623 31.7776 22.1519 31.8704C21.3086 32.1225 20.4371 32.298 19.5619 32.3918C19.2394 32.4264 18.9963 32.6968 18.9963 33.0209V34.8327C18.9963 34.8962 18.9447 34.9478 18.8811 34.9478H17.1185C17.0551 34.9478 17.0034 34.8962 17.0034 34.8327V33.0207C17.0034 32.6967 16.7603 32.4263 16.4379 32.3918C15.6233 32.3044 14.8096 32.1457 14.0194 31.9202C13.9612 31.9036 13.9026 31.8956 13.8449 31.8956C13.5933 31.8956 13.3588 32.0463 13.2597 32.2899L12.5773 33.9664C12.5535 34.0252 12.4863 34.0536 12.4273 34.0296L10.7947 33.3652C10.736 33.3413 10.7076 33.274 10.7315 33.2152L11.4144 31.5376C11.536 31.2383 11.4134 30.8967 11.1288 30.7426C10.3547 30.3242 9.61435 29.8321 8.92833 29.2797C8.67595 29.0765 8.31309 29.0959 8.08399 29.3249L6.80203 30.607C6.77425 30.6349 6.7424 30.6407 6.72066 30.6407C6.69891 30.6407 6.66714 30.6349 6.63929 30.607L5.39295 29.3608C5.34806 29.3159 5.34806 29.2428 5.39295 29.198L6.67478 27.9161C6.90402 27.6873 6.92366 27.3244 6.72031 27.0715C6.20467 26.4313 5.74122 25.7438 5.34287 25.0281C5.18546 24.7452 4.84197 24.6268 4.54434 24.7525L2.87559 25.4557C2.81723 25.4805 2.7494 25.4529 2.72485 25.3944L2.04031 23.7702C2.02501 23.7338 2.03154 23.7023 2.03974 23.6821C2.04795 23.662 2.06528 23.6348 2.10168 23.6194L3.7691 22.9166C4.06764 22.7909 4.22252 22.4621 4.12957 22.1521C3.87747 21.3087 3.70197 20.4372 3.60805 19.562C3.57353 19.2396 3.30306 18.9964 2.97899 18.9964H1.16735C1.10387 18.9964 1.05217 18.9448 1.05217 18.8813V17.1187C1.05217 17.0553 1.1038 17.0036 1.16728 17.0036H2.97927C3.3032 17.0036 3.5736 16.7605 3.60819 16.4382C3.69566 15.6232 3.85439 14.8096 4.07998 14.0193C4.16857 13.7083 4.00963 13.3818 3.71018 13.2598L2.03371 12.5775C1.97486 12.5536 1.94652 12.4863 1.97044 12.4274L2.63485 10.795C2.65877 10.7362 2.7259 10.7078 2.78489 10.7318L4.46227 11.4144C4.76214 11.5365 5.1041 11.4136 5.25757 11.1289C5.67578 10.3549 6.16798 9.6147 6.72045 8.92854C6.92359 8.67616 6.90423 8.31316 6.6752 8.08414L5.39295 6.80203C5.34806 6.75713 5.34806 6.68411 5.39288 6.63929L6.63936 5.39295C6.66714 5.36511 6.69898 5.35928 6.72066 5.35928C6.74247 5.35928 6.77425 5.36511 6.80203 5.39295L8.08406 6.67492C8.31302 6.90409 8.67595 6.92352 8.92847 6.72024C9.56875 6.20453 10.2563 5.74115 10.9718 5.34301C11.2545 5.18575 11.3732 4.84246 11.2476 4.54441L10.5443 2.87566C10.529 2.83933 10.5356 2.80776 10.5438 2.78763C10.552 2.7675 10.5693 2.74028 10.6057 2.72492L12.2298 2.04038C12.2884 2.01576 12.356 2.04332 12.3806 2.10175L13.0834 3.76917C13.209 4.06728 13.5377 4.22245 13.8479 4.12971C14.6914 3.87754 15.5629 3.70211 16.438 3.60826C16.7604 3.57367 17.0036 3.30327 17.0036 2.9792V1.16735C17.0036 1.10387 17.0552 1.05224 17.1187 1.05224H18.8813C18.9447 1.05224 18.9964 1.10387 18.9964 1.16735V2.97934C18.9964 3.30334 19.2396 3.57374 19.562 3.60826C20.3765 3.69566 21.1903 3.85432 21.9805 4.07991C22.2919 4.16864 22.6184 4.0097 22.7401 3.71018L23.4225 2.03364C23.4465 1.97479 23.5139 1.94645 23.5726 1.97044L25.2051 2.63485C25.2639 2.65877 25.2922 2.72604 25.2683 2.78482L24.5855 4.46248C24.4639 4.76172 24.5865 5.1034 24.8711 5.2575C25.6452 5.67585 26.3855 6.16798 27.0715 6.72038C27.3239 6.92359 27.6868 6.90416 27.9159 6.67513L29.198 5.39302C29.2258 5.36518 29.2576 5.35935 29.2793 5.35935C29.3011 5.35935 29.3329 5.36518 29.3607 5.39302L30.607 6.63922C30.6519 6.68411 30.6519 6.75713 30.607 6.80203L29.3251 8.08406C29.0961 8.31288 29.0765 8.67581 29.2797 8.92854C29.7953 9.56875 30.2588 10.2563 30.6571 10.972C30.8145 11.2547 31.1576 11.3732 31.4557 11.2476L33.1243 10.5443C33.1831 10.5196 33.2506 10.5472 33.2752 10.6056L33.9597 12.2299C33.975 12.2662 33.9685 12.2978 33.9603 12.3179C33.952 12.3381 33.9347 12.3653 33.8983 12.3807L32.2309 13.0834C31.9324 13.2091 31.7775 13.538 31.8704 13.8479C32.1225 14.6914 32.298 15.5628 32.392 16.438C32.4265 16.7605 32.6969 17.0036 33.021 17.0036H34.8328C34.8963 17.0036 34.948 17.0553 34.948 17.1187V18.8813H34.9478Z" />
<path d="M17.9999 4.5769C15.3338 4.5769 12.7555 5.3607 10.5438 6.8435C10.3025 7.00532 10.238 7.33206 10.3998 7.57343C10.5615 7.8148 10.8883 7.87926 11.1297 7.71743C12.5472 6.76704 14.1283 6.12872 15.7863 5.82794V11.205L14.899 13.7173C13.5736 14.6797 12.7094 16.2403 12.7094 17.9998C12.7094 18.289 12.7336 18.5725 12.7785 18.8492L11.5907 21.3344L10.2267 22.6983C10.0213 22.9037 10.0213 23.2369 10.2267 23.4422C10.3295 23.5449 10.4642 23.5964 10.5988 23.5964C10.7334 23.5964 10.8681 23.545 10.9708 23.4422L12.3986 22.0145C12.4408 21.9723 12.4754 21.9233 12.5012 21.8694L13.2441 20.315C13.7763 21.4039 14.6718 22.2835 15.7715 22.7964L14.186 23.5543C14.1321 23.58 14.0831 23.6147 14.0409 23.6569L10.1466 27.5511C9.5478 27.0579 8.99639 26.5093 8.49941 25.9137L9.37713 25.0359C9.58259 24.8305 9.58259 24.4974 9.37713 24.292C9.17168 24.0865 8.83863 24.0865 8.63311 24.292L7.85485 25.0702C6.45293 23.0648 5.62922 20.6268 5.62922 17.9998C5.62922 14.6028 6.984 11.4328 9.44405 9.07376C9.65371 8.87265 9.66073 8.53967 9.45962 8.32994C9.25859 8.12021 8.92561 8.11333 8.71581 8.31437C6.04672 10.8738 4.5769 14.3135 4.5769 17.9999C4.5769 25.4014 10.5985 31.4229 17.9999 31.4229C22.3269 31.4229 26.1815 29.3644 28.6378 26.1759C28.6493 26.1623 28.66 26.1484 28.6699 26.1341C30.3959 23.8754 31.423 21.0556 31.423 17.9999C31.423 10.5985 25.4014 4.5769 17.9999 4.5769ZM16.8086 11.4704C16.8284 11.4141 16.8386 11.3549 16.8386 11.2952V5.68337C17.223 5.64739 17.6105 5.62908 18 5.62908C18.3917 5.62908 18.7789 5.64823 19.1614 5.684V11.2952C19.1614 11.3549 19.1715 11.4141 19.1914 11.4704L19.7316 13C19.1818 12.8095 18.5986 12.7094 18.0001 12.7094C17.3934 12.7094 16.8108 12.8133 16.2676 13.0022L16.8086 11.4704ZM10.9952 28.1907L14.7211 24.4648L17.2747 23.2442C17.2771 23.2431 17.2793 23.2416 17.2817 23.2404C17.5168 23.2725 17.7562 23.2905 17.9999 23.2905C18.2632 23.2905 18.5219 23.2705 18.7749 23.2332C18.7817 23.2369 18.7883 23.2409 18.7953 23.2442L21.3489 24.4648L25.0461 28.162C23.0453 29.5536 20.6165 30.3707 17.9999 30.3707C15.4015 30.3707 12.9881 29.5648 10.9952 28.1907ZM25.8916 27.5194L22.0292 23.657C21.9869 23.6148 21.9379 23.5801 21.8841 23.5544L20.2645 22.7803C21.3724 22.2533 22.2689 21.3523 22.7907 20.2414L23.5689 21.8696C23.5947 21.9235 23.6293 21.9725 23.6715 22.0147L27.5327 25.8759C27.0381 26.4734 26.4884 27.0238 25.8916 27.5194ZM28.1739 25.0289L24.4793 21.3345L23.2587 18.7808C23.2522 18.7672 23.2449 18.7542 23.2374 18.7414C23.2716 18.499 23.2905 18.2517 23.2905 18C23.2905 17.4541 23.2065 16.914 23.0408 16.3946C22.9526 16.1179 22.6565 15.965 22.3797 16.0532C22.1029 16.1415 21.9501 16.4375 22.0384 16.7143C22.171 17.1301 22.2383 17.5627 22.2383 17.9999C22.2383 20.3369 20.337 22.2383 17.9999 22.2383C15.6628 22.2383 13.7615 20.337 13.7615 17.9999C13.7615 15.6628 15.6628 13.7615 17.9999 13.7615C18.8497 13.7615 19.6617 14.011 20.353 14.4756C20.3569 14.4785 20.3608 14.4813 20.3648 14.484C20.5906 14.6369 20.8037 14.8125 21.0006 15.0102C21.2058 15.216 21.5389 15.2166 21.7447 15.0116C21.9505 14.8066 21.951 14.4734 21.7461 14.2676C21.5437 14.0646 21.3274 13.8809 21.1002 13.7155L20.2135 11.205V5.8278C25.9823 6.87415 30.3708 11.9341 30.3708 17.9999C30.3708 20.609 29.5583 23.0314 28.1739 25.0289Z" />
<path d="M18.0002 14.8137C16.2433 14.8137 14.814 16.243 14.814 17.9999C14.814 19.7568 16.2433 21.1861 18.0002 21.1861C19.757 21.1861 21.1863 19.7568 21.1863 17.9999C21.1863 16.243 19.757 14.8137 18.0002 14.8137ZM18.0002 20.1339C16.8235 20.1339 15.8661 19.1767 15.8661 17.9999C15.8661 16.8232 16.8234 15.8659 18.0002 15.8659C19.1769 15.8659 20.1342 16.8232 20.1342 17.9999C20.1342 19.1767 19.1769 20.1339 18.0002 20.1339Z" />
</g>
<defs>
<clipPath id="clip0">
<rect width="36" height="36" />
</clipPath>
</defs>
</svg>
