<svg width="65" height="43" viewBox="0 0 65 43" fill="none" xmlns="http://www.w3.org/2000/svg">
<path d="M18.7529 30.4952C18.8265 30.5267 18.9105 30.5477 18.9946 30.5477C19.2047 30.5477 19.4043 30.4323 19.4989 30.2329L27.767 12.9239C27.9036 12.6511 27.7775 12.3154 27.5043 12.1895C27.2312 12.0636 26.895 12.179 26.7689 12.4518L18.5008 29.7609C18.3537 30.0336 18.4693 30.3693 18.7529 30.4952Z" fill="#364859"/>
<path d="M64.4432 28.0932H60.1358V13.6585C60.1358 13.3542 59.8836 13.1025 59.579 13.1025H44.7236C44.4189 13.1025 44.1668 13.3542 44.1668 13.6585V28.0932H42.9901V4.53184C42.9901 3.98634 42.5594 3.55623 42.0236 3.55623H40.952C40.4057 3.55623 39.9855 3.98634 39.9855 4.53184V30.7682H37.9998V8.13003C37.9998 7.82581 37.7477 7.57404 37.443 7.57404H29.448H22.7873C19.2573 7.57404 16.3787 10.4694 16.3787 14.0256V26.4357H16.0635L12.1343 7.63699V1.35326C12.1343 1.04904 11.8822 0.797268 11.5775 0.797268H8.35219C8.1841 0.325201 7.74285 0 7.21755 0H1.20818C0.535801 0 0 0.535009 0 1.21688V3.49329C0 4.15418 0.546307 4.68919 1.20818 4.68919H7.21755C7.73234 4.68919 8.17359 4.36399 8.35219 3.91291H9.19266V7.86777C9.19266 7.90973 9.20317 7.96219 9.21367 8.00415L13.437 28.2086L13.5946 28.9639C13.6472 29.2262 13.8783 29.4045 14.1409 29.4045H16.3892V36.3281V38.8983C15.7273 38.9402 15.202 39.4857 15.202 40.1466V41.7412C15.202 42.4335 15.7694 43 16.4522 43H37.9263C38.6302 43 39.1765 42.444 39.1765 41.7412V40.1466C39.1765 39.4647 38.6617 38.9297 37.9893 38.8983V36.2862H39.9749V37.5555C39.9749 38.0905 40.4057 38.5311 40.9415 38.5311H42.0236C42.5594 38.5311 42.9901 38.0905 42.9901 37.5555V32.8558L64.4852 31.3452C64.7794 31.3242 65 31.0829 65 30.7892V28.6492C65 28.345 64.7584 28.0932 64.4432 28.0932ZM45.2699 14.2144H51.5945V21.1591C51.5945 21.4633 51.8466 21.7151 52.1513 21.7151C52.456 21.7151 52.7081 21.4633 52.7081 21.1591V14.2144H59.0326V28.0932H45.2699V14.2144ZM36.8862 31.3242V35.7197V38.8773H17.4818V36.8631H26.8531C28.5866 36.8631 29.9943 35.4469 29.9943 33.7055V8.68602H36.8862V31.3242ZM17.4818 14.0361C17.4818 11.0883 19.8561 8.68602 22.7768 8.68602H28.8912V33.7055C28.8912 34.8385 27.9772 35.7617 26.8531 35.7617H17.4818V28.838V26.9812V14.0361ZM7.32261 3.49329C7.32261 3.54574 7.28059 3.57721 7.21755 3.57721H1.20818C1.14514 3.57721 1.10312 3.54574 1.10312 3.49329V1.21688C1.10312 1.18541 1.11363 1.10149 1.20818 1.10149H7.21755C7.31211 1.10149 7.32261 1.17492 7.32261 1.21688V1.35326V3.35692V3.49329ZM14.5717 28.2925L10.2958 7.82581V3.35692C10.2958 3.0527 10.0436 2.80093 9.73897 2.80093H8.42573V1.89876H11.0207V7.68944C11.0207 7.7314 11.0207 7.76287 11.0312 7.80483L15.0655 27.1071C15.118 27.3589 15.3491 27.5477 15.6118 27.5477H16.3682V28.303H14.5717V28.2925ZM38.0734 40.1466V41.7412C38.0734 41.8356 38.0103 41.8985 37.9263 41.8985H16.4417C16.3682 41.8985 16.2946 41.8356 16.2946 41.7412V40.1466C16.2946 40.0522 16.3682 39.9893 16.4417 39.9893H16.925H37.443H37.9263C38.0103 39.9893 38.0734 40.0522 38.0734 40.1466ZM37.9998 35.1742V31.8802H39.9855V35.1742H37.9998ZM41.887 37.4296H41.0886V35.7302V31.3347V4.66821H41.887V28.6492V32.3418V37.4296ZM63.8969 30.2752L43.0006 31.7438V29.1947H44.7236H59.5895H63.8969V30.2752Z" fill="#364859"/>
</svg>
