<svg width="57" height="59" viewBox="0 0 57 59" xmlns="http://www.w3.org/2000/svg">
<path d="M54.6259 46.2231H44.4529V45.2281C44.4529 44.3913 43.9426 43.7242 43.2881 43.7242H38.5621L29.4208 36.1259L38.7174 28.4032C38.7396 28.3919 38.7507 28.3693 38.7729 28.358C38.8172 28.3128 38.8616 28.2562 38.8838 28.1884C38.9171 28.1092 38.9393 28.0188 38.9393 27.9396C38.9393 27.8492 38.9171 27.7587 38.8838 27.6796C38.8505 27.623 38.8172 27.5665 38.7729 27.51C38.7507 27.4874 38.7396 27.476 38.7174 27.4647L29.4208 19.742L38.5621 12.1211H41.3134C42.0345 12.1211 42.6113 11.5332 42.6113 10.8095V9.5092C42.6113 9.1813 42.3451 8.90993 42.0234 8.90993H41.1248V0.599272C41.1248 0.271368 40.8585 0 40.5368 0H29.4984C29.1767 0 28.9105 0.271368 28.9105 0.599272V8.90993H28.0673V0.599272C28.0673 0.271368 27.8011 0 27.4794 0H16.441C16.1193 0 15.8531 0.271368 15.8531 0.599272V8.90993H14.9545C14.6327 8.90993 14.3665 9.1813 14.3665 9.5092V10.7982C14.3665 11.5218 14.9545 12.1098 15.6645 12.1098H18.3935L27.557 19.7307L18.2382 27.4534C18.216 27.4647 18.2049 27.4874 18.1828 27.4987C18.1384 27.5439 18.094 27.6004 18.0718 27.6683C18.0385 27.7474 18.0163 27.8379 18.0163 27.9283C18.0163 28.0188 18.0385 28.0979 18.0718 28.1771C18.1051 28.2336 18.1384 28.2901 18.1828 28.3467C18.2049 28.3693 18.216 28.3806 18.2382 28.3919L27.557 36.1146L18.3935 43.7129H13.6898C13.0352 43.7129 12.5249 44.3687 12.5249 45.2168V46.2118H2.36298C1.06501 46.2231 0 47.3085 0 48.6315V51.1303C0 52.4985 1.04282 53.5613 2.36298 53.5613H2.77345C2.79564 56.5577 5.16972 59 8.07629 59C11.0051 59 13.3791 56.569 13.4013 53.5613H41.979C42.0012 56.5577 44.3863 59 47.304 59C50.2106 59 52.5847 56.569 52.6069 53.5613H54.6148C55.9239 53.5613 56.9778 52.4759 56.9778 51.1303V48.6315C57 47.3085 55.935 46.2231 54.6259 46.2231ZM31.8836 1.18724H39.971V8.90993H31.8836V1.18724ZM30.0975 1.18724H30.7077V8.90993H30.0975V1.18724ZM18.804 1.18724H26.8914V8.90993H18.804V1.18724ZM17.029 1.18724H17.6392V8.90993H17.029V1.18724ZM18.6154 10.9113H15.6756C15.609 10.9113 15.5424 10.866 15.5424 10.7869V10.0972H16.441H27.4794H29.5206H40.559H41.4576V10.7869C41.4576 10.866 41.391 10.9113 41.3244 10.9113H38.3624C38.3513 10.9113 38.3513 10.9113 38.3513 10.9113H18.6154ZM20.2573 12.0985H36.7205L28.5 18.9506L20.2573 12.0985ZM19.5362 27.9283L28.4889 20.4996L37.4194 27.9283L28.4889 35.357L19.5362 27.9283ZM28.5 36.8948L36.7205 43.7242H20.2573L28.5 36.8948ZM13.712 45.2281C13.712 45.0811 13.7563 44.968 13.7785 44.9228H43.2104C43.2437 44.9793 43.277 45.0811 43.277 45.2281V46.2231H13.712V45.2281ZM8.08739 57.8015C5.80206 57.8015 3.9494 55.8793 3.9494 53.5161C3.9494 53.256 3.98268 53.0073 4.02705 52.7585C4.03815 52.6907 4.04924 52.6228 4.07143 52.555C4.1158 52.3402 4.18237 52.1253 4.26002 51.9105C4.27112 51.8766 4.2933 51.8314 4.3044 51.7974C4.40424 51.5713 4.51518 51.3565 4.64831 51.1529C4.6594 51.1416 4.67049 51.119 4.68159 51.1077C4.82581 50.8929 4.98112 50.7007 5.15862 50.5197C5.16972 50.5084 5.18081 50.4971 5.1919 50.4858C5.35831 50.3049 5.558 50.1466 5.74659 50.0109C5.76878 49.9996 5.77988 49.977 5.80206 49.9657C5.99066 49.83 6.19035 49.7282 6.40113 49.6265C6.43441 49.6039 6.47879 49.5813 6.51207 49.57C6.71176 49.4795 6.92254 49.423 7.13332 49.3664C7.18879 49.3551 7.23316 49.3325 7.28863 49.3212C7.55488 49.2647 7.82114 49.2307 8.09848 49.2307C8.37583 49.2307 8.64208 49.2647 8.90833 49.3099C8.98599 49.3212 9.05255 49.3551 9.13021 49.3777C9.30771 49.423 9.4963 49.4795 9.66271 49.5473C9.74037 49.5813 9.81802 49.6265 9.89568 49.6717C10.051 49.7509 10.2063 49.83 10.3505 49.9318C10.4282 49.9883 10.5058 50.0448 10.5835 50.1127C10.7166 50.2145 10.8387 50.3162 10.9496 50.4293C11.0272 50.5084 11.1049 50.5989 11.1715 50.678C11.2602 50.7798 11.349 50.8929 11.4377 51.0059C11.5154 51.119 11.593 51.2434 11.6596 51.3678C11.7151 51.4582 11.7594 51.56 11.8149 51.6504C11.8926 51.8087 11.9591 51.9783 12.0146 52.148C12.0368 52.2158 12.059 52.2836 12.0701 52.3402C12.1255 52.555 12.1699 52.7698 12.2032 52.9847C12.2254 53.1656 12.2587 53.3352 12.2587 53.5161C12.2476 55.8793 10.3727 57.8015 8.08739 57.8015ZM47.3151 57.8015C45.0187 57.8015 43.1549 55.8793 43.1549 53.5161C43.1549 53.3352 43.1882 53.1656 43.2104 52.9847C43.2326 52.7585 43.277 52.5437 43.3435 52.3402C43.3657 52.2723 43.3768 52.2158 43.399 52.148C43.4545 51.9783 43.521 51.8087 43.5987 51.6391C43.6431 51.5487 43.6985 51.4469 43.7429 51.3565C43.8095 51.2321 43.8871 51.1077 43.9648 50.9946C44.0424 50.8816 44.1312 50.7798 44.2199 50.6667C44.2976 50.5763 44.3642 50.4971 44.4529 50.4067C44.5638 50.2936 44.697 50.1918 44.819 50.0901C44.8967 50.0335 44.9743 49.9657 45.052 49.9092C45.1962 49.8074 45.3515 49.7283 45.5068 49.6604C45.5845 49.6152 45.6621 49.57 45.7398 49.536C45.9062 49.4682 46.0948 49.4117 46.2723 49.3664C46.3499 49.3438 46.4165 49.3212 46.4942 49.2986C46.7604 49.242 47.0267 49.2194 47.304 49.2194C47.5814 49.2194 47.8587 49.2534 48.1139 49.3099C48.1693 49.3212 48.2137 49.3438 48.2692 49.3551C48.48 49.4117 48.6907 49.4682 48.8904 49.5586C48.9237 49.57 48.9681 49.5926 49.0014 49.6152C49.2121 49.7169 49.4118 49.8187 49.6004 49.9544C49.6226 49.9657 49.6337 49.9883 49.6559 49.9996C49.8556 50.1466 50.0442 50.3049 50.2106 50.4745C50.2217 50.4858 50.2328 50.4971 50.2439 50.5084C50.4214 50.6893 50.5767 50.8929 50.7209 51.0964C50.732 51.1077 50.7431 51.1303 50.7542 51.1416C50.8873 51.3451 50.9982 51.56 51.0981 51.7861C51.1092 51.82 51.1314 51.854 51.1425 51.8992C51.2201 52.1027 51.2867 52.3176 51.3311 52.5437C51.3422 52.6115 51.3643 52.6794 51.3754 52.7472C51.4198 52.996 51.4531 53.2447 51.4531 53.5048C51.4531 55.8793 49.6004 57.8015 47.3151 57.8015ZM55.8241 51.1303C55.8241 51.8087 55.2916 52.3741 54.6259 52.3741H52.507C52.4848 52.2836 52.4515 52.2045 52.4294 52.1253C52.3961 51.9897 52.3628 51.8653 52.3184 51.7409C52.2408 51.5148 52.152 51.2999 52.0522 51.0851C52.0189 51.0172 51.9856 50.9494 51.9523 50.8816C51.7193 50.4519 51.4309 50.0562 51.0981 49.7056C51.0537 49.6491 50.9982 49.6039 50.9428 49.5586C50.7764 49.4003 50.61 49.2534 50.4214 49.1064C50.3215 49.0385 50.2328 48.9707 50.1329 48.9028C50.0331 48.835 49.9443 48.7785 49.8334 48.7219C49.6448 48.6202 49.4451 48.5184 49.2343 48.4393C49.1567 48.4053 49.079 48.3827 49.0014 48.3488C48.7684 48.2696 48.5354 48.2018 48.2914 48.1566C48.2359 48.1453 48.1915 48.1453 48.136 48.134C47.8587 48.0887 47.5814 48.0548 47.304 48.0548C47.0156 48.0548 46.7382 48.0887 46.4609 48.134C46.4165 48.1453 46.3721 48.1453 46.3278 48.1566C46.0726 48.2018 45.8174 48.281 45.5845 48.3601C45.529 48.3827 45.4735 48.4053 45.4181 48.4279C45.1851 48.5184 44.9632 48.6202 44.7413 48.7445C44.6859 48.7785 44.6415 48.8011 44.5971 48.835C44.3974 48.9594 44.2199 49.0837 44.0424 49.2307C44.0091 49.2534 43.9759 49.276 43.9426 49.3099C43.7429 49.4795 43.5654 49.6604 43.399 49.8526C43.3657 49.8979 43.3324 49.9318 43.2991 49.9657C43.1216 50.1692 42.9663 50.3954 42.8221 50.6215C42.811 50.6441 42.7999 50.6667 42.7777 50.6893C42.4671 51.2095 42.2452 51.7748 42.1121 52.3854H13.2904C13.1684 51.7748 12.9354 51.2095 12.6248 50.6893C12.6137 50.6667 12.5915 50.6441 12.5804 50.6102C12.4362 50.3841 12.2808 50.1579 12.1144 49.9544C12.0812 49.9092 12.0368 49.8752 12.0035 49.83C11.8371 49.6378 11.6596 49.4569 11.4599 49.2986C11.4266 49.2647 11.3823 49.242 11.349 49.2194C11.1715 49.0837 10.994 48.9481 10.8054 48.835C10.7499 48.8011 10.7055 48.7672 10.6501 48.7445C10.4393 48.6202 10.2063 48.5184 9.97334 48.4279C9.91787 48.4053 9.8624 48.3827 9.79584 48.3601C9.55177 48.2696 9.30771 48.2018 9.05255 48.1566C9.00817 48.1453 8.9638 48.1453 8.90833 48.134C8.63099 48.0887 8.35364 48.0548 8.0652 48.0548C7.77676 48.0548 7.49942 48.0887 7.23316 48.134C7.1777 48.1453 7.13332 48.1453 7.07785 48.1566C6.83379 48.2018 6.60082 48.2696 6.36785 48.3488C6.29019 48.3714 6.21253 48.4053 6.13488 48.4393C5.93519 48.5184 5.7355 48.6089 5.53581 48.7219C5.43597 48.7785 5.33612 48.8463 5.23628 48.9028C5.13643 48.9707 5.03659 49.0385 4.94784 49.1064C4.75924 49.242 4.59284 49.389 4.42643 49.5586C4.37096 49.6039 4.32659 49.6604 4.27112 49.7056C3.9383 50.0562 3.64986 50.4519 3.41689 50.8816C3.38361 50.9494 3.35033 51.0172 3.31705 51.0851C3.21721 51.2999 3.12845 51.5148 3.0508 51.7409C3.00642 51.8653 2.97314 52.001 2.93986 52.1253C2.91767 52.2158 2.88439 52.2949 2.8622 52.3741H2.34079C1.66407 52.3741 1.14266 51.8314 1.14266 51.1303V48.6315C1.14266 47.953 1.66407 47.4103 2.34079 47.4103H13.1018H43.8427H54.6037C55.2694 47.4103 55.8019 47.953 55.8019 48.6315V51.1303H55.8241Z" />
<path d="M47.3151 50.4634C46.9934 50.4634 46.7272 50.7347 46.7272 51.0627C46.7272 51.3906 46.9934 51.6619 47.3151 51.6619C48.3025 51.6619 49.1123 52.4986 49.1123 53.5163C49.1123 54.5452 48.3025 55.3706 47.3151 55.3706C46.9934 55.3706 46.7272 55.642 46.7272 55.9699C46.7272 56.2978 46.9934 56.5692 47.3151 56.5692C48.957 56.5692 50.2883 55.201 50.2883 53.5163C50.2883 51.8315 48.957 50.4634 47.3151 50.4634Z" />
<path d="M7.94332 50.4634C7.6216 50.4634 7.35535 50.7347 7.35535 51.0627C7.35535 51.3906 7.6216 51.6619 7.94332 51.6619C8.93067 51.6619 9.74052 52.4986 9.74052 53.5163C9.74052 54.5452 8.93067 55.3706 7.94332 55.3706C7.6216 55.3706 7.35535 55.642 7.35535 55.9699C7.35535 56.2978 7.6216 56.5692 7.94332 56.5692C9.5852 56.5692 10.9165 55.201 10.9165 53.5163C10.9165 51.8315 9.5852 50.4634 7.94332 50.4634Z" />
</svg>
