<svg width="63" height="45" viewBox="0 0 63 45" fill="none" xmlns="http://www.w3.org/2000/svg">
<path d="M24.7597 34.3022C24.4514 34.3022 24.1963 34.5513 24.1963 34.8522C24.1963 35.1531 24.4514 35.4021 24.7597 35.4021C26.5564 35.4021 28.0128 36.8339 28.0128 38.5978C28.0128 38.8987 28.268 39.1478 28.5763 39.1478C28.8846 39.1478 29.1397 38.8987 29.1397 38.5978C29.1291 36.2321 27.173 34.3022 24.7597 34.3022Z" fill="#364859"/>
<path d="M55.5263 32.7046C55.218 32.7046 54.9629 32.9536 54.9629 33.2545C54.9629 33.5554 55.218 33.8044 55.5263 33.8044C57.6632 33.8044 59.4067 35.5164 59.4067 37.6331C59.4067 37.934 59.6618 38.183 59.9701 38.183C60.2784 38.183 60.5336 37.934 60.5336 37.6331C60.523 34.9146 58.2798 32.7046 55.5263 32.7046Z" fill="#364859"/>
<path d="M55.5261 35.4229C54.2823 35.4229 53.283 36.4189 53.283 37.6329C53.283 38.8469 54.2929 39.843 55.5261 39.843C56.7487 39.843 57.748 38.8573 57.748 37.6329C57.748 36.4086 56.7487 35.4229 55.5261 35.4229ZM55.5261 38.7431C54.9095 38.7431 54.3992 38.2451 54.3992 37.6329C54.3992 37.0207 54.9095 36.5123 55.5261 36.5123C56.1321 36.5123 56.6318 37.0104 56.6318 37.6329C56.6318 38.2451 56.1321 38.7431 55.5261 38.7431Z" fill="#364859"/>
<path d="M60.2146 31.8953V23.6777C60.2146 22.4014 59.3216 21.3327 58.1309 21.0111V5.05303C58.1309 4.35785 57.9927 3.6938 57.7376 3.14388C57.4824 2.5317 57.1104 1.96103 56.6426 1.49412C56.1855 1.04796 55.6326 0.674429 54.9629 0.383906C54.2931 0.12451 53.6552 0 52.9961 0H32.4993C31.6488 0 30.8302 0.166013 30.0861 0.477288C29.3206 0.788564 28.5977 1.26585 28.0236 1.85727C27.4389 2.40719 26.9286 3.12313 26.5353 3.91169C26.1419 4.6795 25.8442 5.53032 25.621 6.44339L20.3267 30.671H19.8908C17.9028 30.671 16.2869 32.2585 16.2869 34.2091V36.9691H15.5002V4.42011C15.5002 3.94282 15.1174 3.56929 14.6284 3.56929H12.9168C12.4278 3.56929 12.0238 3.95319 12.0238 4.42011V13.8414H2.13685C1.82855 13.8414 1.57341 14.0904 1.57341 14.3913V24.1653H1.33952C0.616605 24.1653 0 24.7671 0 25.4727V26.365C0 26.6659 0.255147 26.9149 0.563449 26.9149H12.0451V41.4307C12.0451 41.8976 12.449 42.2815 12.9381 42.2815H14.6497C15.1387 42.2815 15.5214 41.908 15.5214 41.4307V38.0586H16.3081V41.7109C16.3081 42.0118 16.5633 42.2608 16.8716 42.2608H19.4549C20.6244 43.9105 22.5699 44.9896 24.7599 44.9896C26.9605 44.9896 28.906 43.9105 30.0754 42.2608H49.7111C51.0825 43.9313 53.1768 44.9896 55.5157 44.9896C59.6406 44.9896 63 41.6797 63 37.6228C63 35.309 61.9156 33.2442 60.2146 31.8953ZM2.7003 14.9308H6.81455V19.9112C6.81455 20.2121 7.06969 20.4611 7.378 20.4611C7.6863 20.4611 7.94144 20.2121 7.94144 19.9112V14.9308H12.0557V24.1549H2.7003V14.9308ZM1.11627 25.8255V25.4727C1.11627 25.3585 1.22258 25.2548 1.32889 25.2548H2.12622H12.0344V25.8255H1.11627ZM14.3945 41.1921H13.1613V26.365V24.7049V14.3809V4.65875H14.3945V41.1921ZM26.7266 6.68204C26.918 5.86235 27.1944 5.09454 27.5559 4.38898C27.8854 3.71455 28.3213 3.10238 28.8316 2.62509C29.31 2.12705 29.8947 1.73276 30.5326 1.48374C31.1385 1.22435 31.8083 1.08946 32.4993 1.08946H52.9961C53.5064 1.08946 54.0061 1.19322 54.5164 1.39036C55.0267 1.60825 55.4732 1.90915 55.8346 2.26193C56.1961 2.62509 56.4938 3.06087 56.6957 3.56929C56.8977 3.9947 57.0041 4.51349 57.0041 5.05303V20.9073H55.6007V5.05303C55.6007 4.66913 55.4944 4.32672 55.3988 4.09846C55.2605 3.78718 55.0798 3.50703 54.8353 3.26839C54.5695 2.99862 54.2719 2.81185 54.0061 2.71847C53.6978 2.58358 53.3788 2.51095 52.9961 2.51095H32.4993C31.989 2.51095 31.5 2.60433 31.0535 2.7911C30.5964 2.96749 30.1711 3.24764 29.7778 3.63154C29.3738 4.05695 29.0336 4.54462 28.7784 5.07378C28.4808 5.65483 28.2575 6.30851 28.1087 6.95181L24.3559 24.1446C24.3559 24.1549 24.3453 24.1653 24.3453 24.1757L22.9313 30.671H21.4855L26.7266 6.68204ZM52.337 20.9073V13.7169C52.337 12.8245 51.5928 12.0982 50.6679 12.0982H49.8068C47.5211 12.0982 45.65 13.9244 45.65 16.1656V22.225C44.0553 23.3249 42.9178 25.0265 42.5883 26.9876H35.678C33.9983 26.9876 32.6375 28.3364 32.6375 29.9862V30.6814H29.1186L27.6196 28.0148L30.5751 24.8398L32.106 26.2197C32.3292 26.4273 32.6907 26.4065 32.8927 26.1886C33.1053 25.9707 33.084 25.6179 32.8608 25.4208L28.9379 21.9034C28.7146 21.6959 28.3532 21.7166 28.1512 21.9345C27.9386 22.1524 27.9598 22.5052 28.1831 22.7023L29.7459 24.1031L27.0456 27.0083L25.4934 24.238L29.2143 7.20083C29.3313 6.65091 29.5332 6.06986 29.7884 5.57182C30.001 5.13604 30.2668 4.74176 30.5857 4.40973C30.8515 4.15033 31.1492 3.95319 31.4681 3.82868C31.7977 3.6938 32.1379 3.63154 32.4993 3.63154H52.9961C53.2194 3.63154 53.3788 3.66267 53.5808 3.74568C53.7297 3.79756 53.8891 3.90131 54.038 4.05695C54.1762 4.19184 54.2825 4.35785 54.3569 4.53424C54.4313 4.72101 54.4738 4.90777 54.4738 5.07378V20.9281H52.337V20.9073ZM49.0732 20.9488C49.052 20.9488 49.0307 20.9592 49.0094 20.9592C48.2227 21.0526 47.4679 21.2705 46.7663 21.5817V16.1552C46.7663 14.5158 48.1271 13.1773 49.7962 13.1773H50.6573C50.9656 13.1773 51.2101 13.4056 51.2101 13.7065V20.8969H49.8599C49.6048 20.9073 49.339 20.9177 49.0732 20.9488ZM42.4713 28.1808V30.671H33.7432V29.9758C33.7432 28.9278 34.6043 28.077 35.6674 28.077H42.4713C42.4819 28.1081 42.4713 28.1496 42.4713 28.1808ZM25.132 25.8566L27.8323 30.6814H24.0795L25.132 25.8566ZM24.7599 43.9002C22.7825 43.9002 21.0602 42.8315 20.1247 41.2543C20.0716 41.1609 20.0184 41.0676 19.9652 40.9638C19.9121 40.8704 19.8696 40.777 19.827 40.6733C19.7526 40.4969 19.6888 40.3205 19.625 40.1441C19.6038 40.0715 19.5825 39.9885 19.5613 39.9055C19.5294 39.7602 19.4868 39.6149 19.4656 39.4697C19.4549 39.397 19.4443 39.3244 19.4337 39.2518C19.4018 39.0339 19.3912 38.816 19.3912 38.5877C19.3912 35.6721 21.7938 33.2961 24.7492 33.2961C27.7153 33.2961 30.1286 35.6721 30.1286 38.5877C30.1286 38.816 30.1073 39.0339 30.0861 39.2518C30.0754 39.3244 30.0648 39.397 30.0542 39.4697C30.0329 39.6149 30.001 39.7498 29.9585 39.8951C29.9372 39.9781 29.916 40.0611 29.8947 40.1441C29.8415 40.3205 29.7778 40.4865 29.7033 40.6525C29.6502 40.7667 29.597 40.8808 29.5332 40.9949C29.5013 41.0676 29.4588 41.1298 29.4269 41.1921C28.5127 42.8211 26.7585 43.9002 24.7599 43.9002ZM48.9563 41.1713H30.7239C30.9897 40.5695 31.1598 39.9158 31.2342 39.2518C31.2555 39.0339 31.2661 38.816 31.2661 38.5981C31.2661 35.0807 28.3532 32.217 24.7599 32.217C21.1878 32.217 18.2749 35.0807 18.2749 38.5981C18.2749 38.816 18.2855 39.0339 18.3068 39.2518C18.3706 39.9158 18.5513 40.5695 18.8171 41.1713H17.4244V34.2195C17.4244 32.8706 18.5407 31.7708 19.9015 31.7708H20.7838H23.3885H28.7784H33.1903H43.0348C43.3431 31.7708 43.5982 31.5218 43.5982 31.2209V28.1808C43.5982 27.9836 43.6195 27.7761 43.6407 27.579C43.6407 27.5582 43.6301 27.5478 43.6301 27.5271C43.8321 25.6283 44.9165 23.9786 46.4686 22.9929C46.4792 22.9825 46.5005 22.9929 46.5111 22.9825C47.0214 22.6608 47.553 22.4118 48.1058 22.2562C48.1271 22.2458 48.1483 22.2458 48.159 22.2458C48.3822 22.1835 48.6161 22.1317 48.8606 22.0902C48.9244 22.0798 48.9988 22.0694 49.0732 22.059C49.339 22.0279 49.5942 22.0072 49.8706 22.0072H51.7735H57.3868C58.3223 22.0072 59.0877 22.7646 59.0877 23.688V31.1586C58.8432 31.0238 58.5775 30.9096 58.3117 30.8059C58.2373 30.7747 58.1628 30.754 58.0884 30.7229C57.8971 30.6502 57.7057 30.588 57.5143 30.5361C57.4187 30.505 57.323 30.4842 57.2273 30.4635C57.0359 30.422 56.8446 30.3804 56.6532 30.3597C56.5575 30.3493 56.4725 30.3286 56.3874 30.3182C56.1004 30.2871 55.824 30.2663 55.5263 30.2663C51.4015 30.2663 48.042 33.5762 48.042 37.6332C48.042 37.9237 48.0633 38.2038 48.0952 38.4736C48.1058 38.5774 48.1271 38.6915 48.1483 38.7953C48.1696 38.9613 48.2015 39.1169 48.244 39.2829C48.2759 39.4178 48.3078 39.5423 48.3503 39.6772C48.3822 39.8017 48.4247 39.9262 48.4673 40.0507C48.5204 40.196 48.5629 40.3413 48.6267 40.4761C48.6693 40.5695 48.7118 40.6525 48.7543 40.7459C48.8181 40.8808 48.8819 41.0261 48.9563 41.1713ZM55.5263 43.9002C53.3895 43.9002 51.4971 42.8522 50.3383 41.2439C50.1895 41.0364 50.0513 40.8289 49.9344 40.611C49.8812 40.528 49.8493 40.4346 49.8068 40.3413C49.7217 40.1649 49.6367 39.9781 49.5729 39.7913C49.541 39.7083 49.5091 39.6149 49.4772 39.5319C49.3922 39.2725 49.3284 39.0131 49.2859 38.7434C49.2752 38.6707 49.2646 38.5877 49.254 38.5151C49.2114 38.2246 49.1796 37.9237 49.1796 37.6332C49.1796 34.1676 52.0287 31.3558 55.537 31.3558C55.8453 31.3558 56.1429 31.3869 56.4406 31.4284C56.5044 31.4388 56.5788 31.4492 56.6426 31.4595C56.9296 31.5114 57.2167 31.5737 57.4931 31.6671C57.5356 31.6774 57.5675 31.6982 57.61 31.7086C57.8864 31.8019 58.1628 31.9161 58.4286 32.051C58.4499 32.0613 58.4605 32.0717 58.4818 32.0717C58.7688 32.217 59.0452 32.3934 59.311 32.5905C60.8738 33.7318 61.8944 35.5684 61.8944 37.6332C61.8837 41.0883 59.0346 43.9002 55.5263 43.9002Z" fill="#364859"/>
<path d="M24.76 36.6475C23.665 36.6475 22.7827 37.519 22.7827 38.5981C22.7827 39.6876 23.6757 40.5695 24.76 40.5695C25.8657 40.5695 26.7587 39.6876 26.7587 38.5981C26.7587 37.519 25.8657 36.6475 24.76 36.6475ZM24.76 39.4697C24.2816 39.4697 23.8989 39.0754 23.8989 38.5981C23.8989 38.1312 24.2923 37.7473 24.76 37.7473C25.2491 37.7473 25.6424 38.1312 25.6424 38.5981C25.6424 39.0754 25.2491 39.4697 24.76 39.4697Z" fill="#364859"/>
</svg>
