<svg width="44" height="34" viewBox="0 0 44 34" xmlns="http://www.w3.org/2000/svg">
<path d="M34.9415 31.106H36.9536C37.4155 31.106 37.7913 30.7087 37.7913 30.2142V28.1308C37.7913 27.6444 37.4155 27.239 36.9536 27.239H34.9415C34.4796 27.239 34.1038 27.6362 34.1038 28.1308V30.2142C34.1038 30.7087 34.4796 31.106 34.9415 31.106ZM34.9415 28.0983H36.9536L36.9692 28.1308L36.9536 30.2466L34.9337 30.2142L34.9415 28.0983Z" />
<path d="M34.1119 14.6409H36.1084C36.5781 14.6409 36.9618 14.2518 36.9618 13.7735V11.6738C36.9618 11.1955 36.5781 10.8064 36.1084 10.8064H34.1119C33.6422 10.8064 33.2585 11.1955 33.2585 11.6738V13.7735C33.2585 14.2518 33.6422 14.6409 34.1119 14.6409ZM34.1119 11.6495H36.1084L36.1397 11.6657L36.1084 13.7816L34.0884 13.7654L34.1119 11.6495Z" />
<path d="M29.704 14.6409H31.7004C32.1702 14.6409 32.5538 14.2518 32.5538 13.7735V11.6738C32.5538 11.1955 32.1702 10.8064 31.7004 10.8064H29.704C29.2342 10.8064 28.8506 11.1955 28.8506 11.6738V13.7735C28.8506 14.2518 29.2264 14.6409 29.704 14.6409ZM29.704 11.6495H31.7004L31.7317 11.6657L31.7004 13.7816L29.6805 13.7654L29.704 11.6495Z" />
<path d="M43.5851 0H11.1957H9.08968H6.08327H3.97722C3.75018 0 3.56228 0.194564 3.56228 0.429661V16.5703H2.521H0.414947C0.1879 16.5703 0 16.7649 0 17V33.5703C0 33.8054 0.1879 34 0.414947 34H7.63345H40.0228C40.2498 34 40.4377 33.8054 40.4377 33.5703V17.4216H43.5851C43.8121 17.4216 44 17.227 44 16.9919V0.429661C44 0.194564 43.8121 0 43.5851 0ZM7.12456 0.851216V9.35527C7.12456 9.59037 7.31246 9.78493 7.5395 9.78493C7.76655 9.78493 7.95445 9.59037 7.95445 9.35527V0.851216H8.68256V10.5389H6.49039V0.851216H7.12456ZM4.38434 0.851216H5.66833V10.9685C5.66833 11.2036 5.85623 11.3982 6.08327 11.3982H9.08968C9.31673 11.3982 9.50463 11.2036 9.50463 10.9685V0.851216H10.7886V16.5703H7.63345H5.5274H4.38434V0.851216ZM3.56228 17.4216V25.9256C3.56228 26.1607 3.75018 26.3553 3.97722 26.3553C4.20427 26.3553 4.39217 26.1607 4.39217 25.9256V17.4216H5.12029V27.1092H2.92811V17.4216H3.56228ZM0.822064 17.4216H2.10605V27.5389C2.10605 27.774 2.29395 27.9685 2.521 27.9685H5.5274C5.75445 27.9685 5.94235 27.774 5.94235 27.5389V17.4216H7.22634V33.1407H0.822064V17.4216ZM39.6078 33.1407H8.0484V17.4216H11.1957H39.6157V33.1407H39.6078ZM43.1701 16.5703H40.0228H11.6028V0.851216H43.1701V16.5703Z" />
<path d="M26.1261 31.106H28.1381C28.6001 31.106 28.9759 30.7087 28.9759 30.2142V28.1308C28.9759 27.6444 28.6001 27.239 28.1381 27.239H26.1261C25.6641 27.239 25.2883 27.6362 25.2883 28.1308V30.2142C25.2883 30.7087 25.6641 31.106 26.1261 31.106ZM26.1261 28.0983H28.1381L28.1538 28.1308L28.1381 30.2466L26.1182 30.2142L26.1261 28.0983Z" />
<path d="M30.5338 31.106H32.5459C33.0078 31.106 33.3836 30.7087 33.3836 30.2142V28.1308C33.3836 27.6444 33.0078 27.239 32.5459 27.239H30.5338C30.0718 27.239 29.696 27.6362 29.696 28.1308V30.2142C29.696 30.7087 30.0718 31.106 30.5338 31.106ZM30.5338 28.0983H32.5459L32.5615 28.1308L32.5459 30.2466L30.5259 30.2142L30.5338 28.0983Z" />
<path d="M38.5196 14.6409H40.5161C40.9858 14.6409 41.3694 14.2518 41.3694 13.7735V11.6738C41.3694 11.1955 40.9858 10.8064 40.5161 10.8064H38.5196C38.0499 10.8064 37.6663 11.1955 37.6663 11.6738V13.7735C37.6663 14.2518 38.0499 14.6409 38.5196 14.6409ZM38.5196 11.6495H40.5161L40.5474 11.6657L40.5161 13.7816L38.4961 13.7654L38.5196 11.6495Z" />
</svg>
