<svg width="36" height="36" viewBox="0 0 36 36" fill="none" xmlns="http://www.w3.org/2000/svg">
<g clip-path="url(#clip0)">
<path d="M26.7542 13.646C26.7542 8.79974 22.8114 4.85693 17.9651 4.85693C13.1188 4.85693 9.17603 8.79967 9.17603 13.646C9.17603 15.3209 9.64938 16.9502 10.5449 18.3577C10.7005 18.6022 11.0249 18.6745 11.2697 18.5189C11.5143 18.3632 11.5864 18.0387 11.4308 17.7941C10.6427 16.5554 10.2261 15.1209 10.2261 13.6461C10.2261 9.37873 13.6978 5.90704 17.9652 5.90704C22.2325 5.90704 25.7042 9.37873 25.7042 13.6461C25.7042 17.9133 22.2325 21.385 17.9652 21.385C16.0501 21.385 14.2121 20.6799 12.7896 19.3994C12.5742 19.2054 12.2422 19.2229 12.0481 19.4384C11.8542 19.6539 11.8716 19.9858 12.0871 20.1799C13.7027 21.6342 15.7903 22.4351 17.9652 22.4351C22.8114 22.4349 26.7542 18.4923 26.7542 13.646Z" fill="#364859"/>
<path d="M22.3875 8.63184C21.1643 7.55184 19.5938 6.95703 17.9652 6.95703C14.2769 6.95703 11.2762 9.95768 11.2762 13.646C11.2762 17.3343 14.2769 20.335 17.9652 20.335C21.6534 20.335 24.6541 17.3343 24.6541 13.646C24.6541 12.5724 24.3919 11.5037 23.896 10.5556C23.7617 10.2985 23.4445 10.1991 23.1875 10.3337C22.9306 10.468 22.8312 10.7852 22.9656 11.0422C23.3892 11.8522 23.6041 12.7283 23.6041 13.646C23.6041 16.7553 21.0745 19.2849 17.9652 19.2849C14.8559 19.2849 12.3263 16.7553 12.3263 13.646C12.3263 10.5367 14.8559 8.00707 17.9652 8.00707C19.3376 8.00707 20.6614 8.50849 21.6926 9.41894C21.91 9.61103 22.2417 9.59024 22.4336 9.37288C22.6254 9.15552 22.6048 8.82371 22.3875 8.63184Z" fill="#364859"/>
<path d="M20.2995 13.6461C20.2995 12.3588 19.2523 11.3115 17.965 11.3115C16.6777 11.3115 15.6305 12.3588 15.6305 13.6461C15.6305 14.9334 16.6777 15.9806 17.965 15.9806C19.2523 15.9806 20.2995 14.9333 20.2995 13.6461ZM17.965 14.9305C17.2567 14.9305 16.6805 14.3543 16.6805 13.646C16.6805 12.9377 17.2567 12.3615 17.965 12.3615C18.6733 12.3615 19.2495 12.9377 19.2495 13.646C19.2495 14.3543 18.6733 14.9305 17.965 14.9305Z" fill="#364859"/>
<path d="M18.4901 9.86301V9.5487C18.4901 9.25868 18.255 9.02368 17.9651 9.02368C17.6751 9.02368 17.4401 9.25868 17.4401 9.5487V9.86301C17.4401 10.153 17.6751 10.388 17.9651 10.388C18.255 10.388 18.4901 10.153 18.4901 9.86301Z" fill="#364859"/>
<path d="M21.0111 11.3423L21.2332 11.1201C21.4383 10.9151 21.4383 10.5827 21.2333 10.3777C21.0283 10.1726 20.6958 10.1727 20.4909 10.3776L20.2687 10.5998C20.0636 10.8048 20.0636 11.1373 20.2686 11.3423C20.3711 11.4448 20.5055 11.496 20.6399 11.496C20.7743 11.496 20.9086 11.4448 21.0111 11.3423Z" fill="#364859"/>
<path d="M22.0622 14.1711C22.3522 14.1711 22.5872 13.9361 22.5872 13.6461C22.5872 13.3561 22.3522 13.1211 22.0622 13.1211H21.7479C21.458 13.1211 21.2229 13.3561 21.2229 13.6461C21.2229 13.9361 21.458 14.1711 21.7479 14.1711H22.0622Z" fill="#364859"/>
<path d="M20.4908 16.9143C20.5933 17.0169 20.7277 17.0681 20.8621 17.0681C20.9965 17.0681 21.1308 17.0169 21.2334 16.9144C21.4384 16.7094 21.4385 16.3769 21.2334 16.172L21.0112 15.9497C20.8062 15.7447 20.4738 15.7446 20.2688 15.9496C20.0638 16.1547 20.0637 16.4871 20.2687 16.6921L20.4908 16.9143Z" fill="#364859"/>
<path d="M17.4401 17.4291V17.7433C17.4401 18.0333 17.6751 18.2683 17.9651 18.2683C18.255 18.2683 18.4901 18.0333 18.4901 17.7433V17.4291C18.4901 17.139 18.255 16.9041 17.9651 16.9041C17.6751 16.9041 17.4401 17.139 17.4401 17.4291Z" fill="#364859"/>
<path d="M15.0679 17.0681C15.2023 17.0681 15.3367 17.0169 15.4392 16.9143L15.6614 16.6921C15.8664 16.487 15.8664 16.1546 15.6613 15.9496C15.4563 15.7447 15.1239 15.7446 14.9189 15.9497L14.6967 16.172C14.4917 16.377 14.4917 16.7094 14.6968 16.9144C14.7992 17.0169 14.9335 17.0681 15.0679 17.0681Z" fill="#364859"/>
<path d="M13.8677 13.1211C13.5777 13.1211 13.3427 13.3561 13.3427 13.6461C13.3427 13.9361 13.5777 14.1711 13.8677 14.1711H14.182C14.4719 14.1711 14.707 13.9361 14.707 13.6461C14.707 13.3561 14.4719 13.1211 14.182 13.1211H13.8677Z" fill="#364859"/>
<path d="M14.9189 11.3423C15.0214 11.4448 15.1557 11.496 15.2901 11.496C15.4245 11.496 15.5589 11.4448 15.6614 11.3423C15.8664 11.1372 15.8664 10.8048 15.6613 10.5998L15.4392 10.3776C15.2341 10.1727 14.9017 10.1726 14.6967 10.3777C14.4917 10.5827 14.4917 10.9152 14.6968 11.1201L14.9189 11.3423Z" fill="#364859"/>
<path d="M33.0601 23.5706H27.3269C28.472 22.4882 29.433 21.2086 30.1429 19.8088C31.1171 17.8879 31.6111 15.8144 31.6111 13.646C31.611 6.12156 25.4895 0 17.965 0C10.4406 0 4.31908 6.12156 4.31908 13.646C4.31908 15.8145 4.81302 17.8879 5.78724 19.8088C6.49713 21.2086 7.45813 22.4882 8.60329 23.5706H2.93997C1.37948 23.5706 0.109985 24.8402 0.109985 26.4006V33.1699C0.109985 34.7304 1.37955 36 2.93997 36H33.0601C34.6206 36 35.8901 34.7304 35.8901 33.1699V26.4006C35.8902 24.8402 34.6206 23.5706 33.0601 23.5706ZM6.72373 19.3338C5.8249 17.5615 5.36912 15.6479 5.36912 13.646C5.36912 6.70055 11.0196 1.05003 17.965 1.05003C24.9105 1.05003 30.561 6.70055 30.561 13.646C30.561 15.6479 30.1052 17.5615 29.2064 19.3338C28.375 20.973 27.1708 22.434 25.7188 23.5706H10.2113C8.75926 22.434 7.55508 20.973 6.72373 19.3338ZM2.93997 24.6206H33.0601C33.8729 24.6206 34.5597 25.1685 34.772 25.9141H1.22813C1.44038 25.1685 2.12717 24.6206 2.93997 24.6206ZM33.0601 34.95H2.93997C2.12717 34.95 1.44038 34.4021 1.22813 33.6564H28.1707C28.4606 33.6564 28.6957 33.4214 28.6957 33.1314C28.6957 32.8414 28.4606 32.6064 28.1707 32.6064H1.16002V26.9641H34.8401V32.6064H30.4082C30.1182 32.6064 29.8831 32.8414 29.8831 33.1314C29.8831 33.4214 30.1182 33.6564 30.4082 33.6564H34.772C34.5598 34.4021 33.873 34.95 33.0601 34.95Z" fill="#364859"/>
</g>
<defs>
<clipPath id="clip0">
<rect width="36" height="36" fill="white"/>
</clipPath>
</defs>
</svg>
