<svg width="47" height="35" viewBox="0 0 47 35" fill="none" xmlns="http://www.w3.org/2000/svg">
<path d="M18.4716 26.6797C18.2416 26.6797 18.0513 26.8734 18.0513 27.1074C18.0513 27.3414 18.2416 27.5351 18.4716 27.5351C19.812 27.5351 20.8985 28.6488 20.8985 30.0207C20.8985 30.2547 21.0889 30.4484 21.3189 30.4484C21.5489 30.4484 21.7392 30.2547 21.7392 30.0207C21.7313 28.1807 20.272 26.6797 18.4716 26.6797Z" fill="#364859"/>
<path d="M41.4245 25.437C41.1945 25.437 41.0042 25.6307 41.0042 25.8647C41.0042 26.0988 41.1945 26.2924 41.4245 26.2924C43.0187 26.2924 44.3194 27.624 44.3194 29.2703C44.3194 29.5043 44.5097 29.698 44.7397 29.698C44.9697 29.698 45.1601 29.5043 45.1601 29.2703C45.1521 27.1559 43.4787 25.437 41.4245 25.437Z" fill="#364859"/>
<path d="M41.4242 27.5513C40.4963 27.5513 39.7507 28.326 39.7507 29.2702C39.7507 30.2144 40.5042 30.9891 41.4242 30.9891C42.3363 30.9891 43.0818 30.2225 43.0818 29.2702C43.0818 28.3179 42.3363 27.5513 41.4242 27.5513ZM41.4242 30.1337C40.9642 30.1337 40.5835 29.7463 40.5835 29.2702C40.5835 28.7941 40.9642 28.3986 41.4242 28.3986C41.8763 28.3986 42.249 28.786 42.249 29.2702C42.249 29.7463 41.8763 30.1337 41.4242 30.1337Z" fill="#364859"/>
<path d="M44.922 24.8075V18.416C44.922 17.4233 44.2558 16.5921 43.3675 16.3419V3.93014C43.3675 3.38944 43.2644 2.87295 43.0741 2.44524C42.8837 1.9691 42.6061 1.52525 42.2572 1.16209C41.9161 0.81508 41.5037 0.524556 41.0041 0.298594C40.5044 0.0968411 40.0285 0 39.5368 0H24.2455C23.611 0 23.0003 0.129122 22.4452 0.371224C21.8741 0.613327 21.3348 0.984552 20.9065 1.44455C20.4703 1.87226 20.0896 2.4291 19.7962 3.04243C19.5027 3.63961 19.2806 4.30136 19.1141 5.01153L15.1644 23.8552H14.8392C13.3561 23.8552 12.1505 25.0899 12.1505 26.6071V28.7537H11.5636V3.43786C11.5636 3.06664 11.2781 2.77611 10.9133 2.77611H9.63635C9.27152 2.77611 8.97013 3.07471 8.97013 3.43786V10.7655H1.59416C1.36416 10.7655 1.17381 10.9592 1.17381 11.1932V18.7952H0.999325C0.460007 18.7952 0 19.2633 0 19.8121V20.5061C0 20.7401 0.190348 20.9338 0.420351 20.9338H8.98599V32.2239C8.98599 32.587 9.28738 32.8856 9.65221 32.8856H10.9291C11.294 32.8856 11.5795 32.5951 11.5795 32.2239V29.6011H12.1664V32.4418C12.1664 32.6758 12.3567 32.8695 12.5867 32.8695H14.514C15.3864 34.1526 16.8378 34.9919 18.4717 34.9919C20.1134 34.9919 21.5648 34.1526 22.4372 32.8695H37.0861C38.1092 34.1688 39.6716 34.9919 41.4165 34.9919C44.4938 34.9919 47 32.4176 47 29.2622C47 27.4625 46.191 25.8566 44.922 24.8075ZM2.01451 11.6129H5.08387V15.4865C5.08387 15.7205 5.27422 15.9142 5.50422 15.9142C5.73422 15.9142 5.92457 15.7205 5.92457 15.4865V11.6129H8.99393V18.7872H2.01451V11.6129ZM0.832771 20.0865V19.8121C0.832771 19.7233 0.912082 19.6426 0.991394 19.6426H1.58623H8.97806V20.0865H0.832771ZM10.7388 32.0383H9.81877V20.5061V19.2149V11.1852V3.62347H10.7388V32.0383ZM19.9389 5.19714C20.0817 4.5596 20.2879 3.96242 20.5575 3.41365C20.8034 2.88909 21.1286 2.41296 21.5093 2.04173C21.8662 1.65437 22.3024 1.34771 22.7783 1.15402C23.2303 0.952271 23.73 0.84736 24.2455 0.84736H39.5368C39.9175 0.84736 40.2902 0.928061 40.6709 1.08139C41.0516 1.25086 41.3847 1.4849 41.6544 1.75928C41.9241 2.04173 42.1461 2.38068 42.2968 2.77611C42.4475 3.10699 42.5268 3.51049 42.5268 3.93014V16.2612H41.4799V3.93014C41.4799 3.63154 41.4006 3.36523 41.3292 3.18769C41.2261 2.94558 41.0913 2.72769 40.9089 2.54208C40.7106 2.33226 40.4885 2.187 40.2902 2.11436C40.0602 2.00945 39.8223 1.95296 39.5368 1.95296H24.2455C23.8648 1.95296 23.5 2.02559 23.1669 2.17086C22.8259 2.30805 22.5086 2.52594 22.2152 2.82453C21.9138 3.15541 21.66 3.5347 21.4696 3.94628C21.2476 4.3982 21.081 4.90662 20.97 5.40696L18.1703 18.7791C18.1703 18.7872 18.1623 18.7953 18.1623 18.8033L17.1075 23.8552H16.0289L19.9389 5.19714ZM39.0451 16.2612V10.6687C39.0451 9.97464 38.4899 9.40973 37.7999 9.40973H37.1574C35.4522 9.40973 34.0564 10.8301 34.0564 12.5732V17.2861C32.8667 18.1416 32.0181 19.4651 31.7722 20.9903H26.6169C25.3638 20.9903 24.3486 22.0394 24.3486 23.3226V23.8633H21.7234L20.6051 21.7893L22.81 19.3198L23.9521 20.3931C24.1186 20.5545 24.3883 20.5384 24.539 20.3689C24.6976 20.1994 24.6817 19.9251 24.5152 19.7717L21.5886 17.036C21.422 16.8746 21.1524 16.8907 21.0017 17.0602C20.8431 17.2297 20.8589 17.504 21.0255 17.6574L22.1914 18.7468L20.1768 21.0065L19.0189 18.8517L21.7948 5.60065C21.882 5.17293 22.0327 4.72101 22.2231 4.33364C22.3817 3.9947 22.58 3.68803 22.8179 3.42979C23.0162 3.22804 23.2383 3.07471 23.4762 2.97787C23.7221 2.87295 23.9759 2.82453 24.2455 2.82453H39.5368C39.7033 2.82453 39.8223 2.84874 39.973 2.9133C40.084 2.95365 40.203 3.03436 40.314 3.15541C40.4171 3.26032 40.4965 3.38944 40.552 3.52663C40.6075 3.67189 40.6392 3.81715 40.6392 3.94628V16.2774H39.0451V16.2612ZM36.6102 16.2935C36.5943 16.2935 36.5785 16.3016 36.5626 16.3016C35.9757 16.3742 35.4126 16.5437 34.8891 16.7858V12.5651C34.8891 11.2901 35.9043 10.249 37.1495 10.249H37.7919C38.0219 10.249 38.2044 10.4266 38.2044 10.6606V16.2532H37.1971C37.0068 16.2612 36.8085 16.2693 36.6102 16.2935ZM31.6849 21.9184V23.8552H25.1735V23.3145C25.1735 22.4994 25.8159 21.8377 26.609 21.8377H31.6849C31.6929 21.8619 31.6849 21.8942 31.6849 21.9184ZM18.7492 20.1107L20.7638 23.8633H17.9641L18.7492 20.1107ZM18.4717 34.1446C16.9965 34.1446 15.7116 33.3134 15.0137 32.0867C14.974 32.0141 14.9344 31.9414 14.8947 31.8607C14.855 31.7881 14.8233 31.7155 14.7916 31.6348C14.7361 31.4976 14.6885 31.3604 14.6409 31.2232C14.625 31.1667 14.6092 31.1021 14.5933 31.0376C14.5695 30.9246 14.5378 30.8116 14.5219 30.6986C14.514 30.6421 14.5061 30.5857 14.4981 30.5292C14.4744 30.3597 14.4664 30.1902 14.4664 30.0127C14.4664 27.745 16.2589 25.8969 18.4637 25.8969C20.6765 25.8969 22.4769 27.745 22.4769 30.0127C22.4769 30.1902 22.461 30.3597 22.4452 30.5292C22.4372 30.5857 22.4293 30.6421 22.4214 30.6986C22.4055 30.8116 22.3817 30.9165 22.35 31.0295C22.3341 31.0941 22.3183 31.1586 22.3024 31.2232C22.2627 31.3604 22.2152 31.4895 22.1596 31.6186C22.12 31.7074 22.0803 31.7962 22.0327 31.8849C22.0089 31.9414 21.9772 31.9899 21.9534 32.0383C21.2713 33.3053 19.9627 34.1446 18.4717 34.1446ZM36.523 32.0221H22.921C23.1193 31.5541 23.2462 31.0457 23.3017 30.5292C23.3176 30.3597 23.3255 30.1902 23.3255 30.0208C23.3255 27.285 21.1524 25.0576 18.4717 25.0576C15.8068 25.0576 13.6336 27.285 13.6336 30.0208C13.6336 30.1902 13.6416 30.3597 13.6574 30.5292C13.705 31.0457 13.8399 31.5541 14.0381 32.0221H12.9992V26.6152C12.9992 25.5661 13.8319 24.7106 14.8471 24.7106H15.5054H17.4485H21.4696H24.7611H32.1053C32.3353 24.7106 32.5257 24.5169 32.5257 24.2829V21.9184C32.5257 21.765 32.5415 21.6036 32.5574 21.4503C32.5574 21.4342 32.5494 21.4261 32.5494 21.41C32.7001 19.9331 33.5091 18.65 34.6671 17.8833C34.675 17.8753 34.6909 17.8833 34.6988 17.8753C35.0795 17.6251 35.476 17.4314 35.8885 17.3104C35.9043 17.3023 35.9202 17.3023 35.9281 17.3023C36.0947 17.2539 36.2692 17.2135 36.4516 17.1812C36.4992 17.1732 36.5547 17.1651 36.6102 17.157C36.8085 17.1328 36.9988 17.1167 37.205 17.1167H38.6247H42.8124C43.5103 17.1167 44.0813 17.7058 44.0813 18.424V24.2345C43.8989 24.1296 43.7006 24.0408 43.5024 23.9601C43.4468 23.9359 43.3913 23.9198 43.3358 23.8956C43.1931 23.8391 43.0503 23.7906 42.9075 23.7503C42.8361 23.7261 42.7648 23.7099 42.6934 23.6938C42.5506 23.6615 42.4079 23.6292 42.2651 23.6131C42.1937 23.605 42.1303 23.5889 42.0668 23.5808C41.8527 23.5566 41.6465 23.5405 41.4244 23.5405C38.3471 23.5405 35.8409 26.1148 35.8409 29.2702C35.8409 29.4962 35.8567 29.7141 35.8805 29.9239C35.8885 30.0046 35.9043 30.0934 35.9202 30.1741C35.936 30.3032 35.9598 30.4243 35.9916 30.5534C36.0154 30.6583 36.0392 30.7551 36.0709 30.86C36.0947 30.9569 36.1264 31.0537 36.1581 31.1506C36.1978 31.2635 36.2295 31.3765 36.2771 31.4814C36.3088 31.5541 36.3405 31.6186 36.3723 31.6913C36.4198 31.7962 36.4674 31.9092 36.523 32.0221ZM41.4244 34.1446C39.8302 34.1446 38.4185 33.3295 37.554 32.0786C37.443 31.9172 37.3399 31.7558 37.2526 31.5864C37.213 31.5218 37.1892 31.4492 37.1574 31.3765C37.094 31.2393 37.0305 31.0941 36.983 30.9488C36.9592 30.8843 36.9354 30.8116 36.9116 30.7471C36.8481 30.5453 36.8005 30.3436 36.7688 30.1337C36.7609 30.0772 36.753 30.0127 36.745 29.9562C36.7133 29.7302 36.6895 29.4962 36.6895 29.2702C36.6895 26.5748 38.8151 24.3878 41.4323 24.3878C41.6623 24.3878 41.8844 24.412 42.1065 24.4443C42.1541 24.4524 42.2096 24.4605 42.2572 24.4685C42.4713 24.5089 42.6855 24.5573 42.8917 24.6299C42.9234 24.638 42.9472 24.6541 42.9789 24.6622C43.1851 24.7348 43.3913 24.8236 43.5896 24.9285C43.6055 24.9366 43.6134 24.9447 43.6293 24.9447C43.8434 25.0576 44.0496 25.1948 44.2479 25.3482C45.4138 26.2359 46.1752 27.6643 46.1752 29.2702C46.1672 31.9576 44.0417 34.1446 41.4244 34.1446Z" fill="#364859"/>
<path d="M18.4718 28.5037C17.6549 28.5037 16.9966 29.1815 16.9966 30.0208C16.9966 30.8682 17.6628 31.5542 18.4718 31.5542C19.2966 31.5542 19.9628 30.8682 19.9628 30.0208C19.9628 29.1815 19.2966 28.5037 18.4718 28.5037ZM18.4718 30.6987C18.1149 30.6987 17.8294 30.3921 17.8294 30.0208C17.8294 29.6577 18.1228 29.3591 18.4718 29.3591C18.8366 29.3591 19.1301 29.6577 19.1301 30.0208C19.1301 30.3921 18.8366 30.6987 18.4718 30.6987Z" fill="#364859"/>
</svg>
