<svg width="75" height="64" viewBox="0 0 75 64" fill="none" xmlns="http://www.w3.org/2000/svg">
<g clip-path="url(#clip0)">
<path d="M72.8782 2.34154H68.6428V1.75008C68.6428 0.801297 67.8517 0.0126953 66.9146 0.0126953C65.9774 0.0126953 65.1863 0.813619 65.1863 1.75008V2.34154H60.9509C60.0381 2.34154 59.2714 3.08085 59.2714 3.95571V13.5668C59.2714 14.109 59.5635 14.6265 60.0381 14.9345L65.1863 18.4832V35.7955H60.9509C60.744 35.7955 60.5493 35.8941 60.4276 36.0666L46.7842 55.5968H45.5428V41.5745H45.8714C46.5043 41.5745 47.0155 41.0446 47.0155 40.4039V37.9395C47.0155 37.2988 46.5043 36.7689 45.8714 36.7689H23.0635C22.4306 36.7689 21.9195 37.2988 21.9195 37.9395V40.4039C21.9195 41.0446 22.4306 41.5745 23.0635 41.5745H23.3921V55.5968H20.532V46.2445H20.5563C21.1162 46.2445 21.5543 45.8009 21.5543 45.2341V43.5213C21.5543 42.9545 21.1162 42.511 20.5563 42.511H4.69789C4.13804 42.511 3.6999 42.9545 3.6999 43.5213V45.2341C3.6999 45.8009 4.13804 46.2445 4.69789 46.2445H4.74658V55.5968H0.645048C0.292097 55.5968 0 55.8925 0 56.2499V57.3465C0 59.2811 1.54568 60.8459 3.43214 60.8459H4.83177C5.13604 62.6449 6.65738 64.0127 8.50733 64.0127C10.3329 64.0127 11.8543 62.6449 12.1585 60.8459H54.4152C54.6708 60.8459 54.9021 60.6858 55.0116 60.4516L63.7137 39.2456H63.8597V41.4266H63.7137C63.0686 41.4266 62.5453 41.9688 62.5453 42.6465V43.3242C62.5453 44.0019 63.0686 44.5441 63.7137 44.5441H65.3324V49.6946C62.1802 50.4339 59.819 53.3296 59.819 56.7797C59.819 60.772 62.9956 64.025 66.9146 64.025C70.8214 64.025 74.0101 60.772 74.0101 56.7797C74.0101 53.3296 71.649 50.4339 68.4968 49.6946V44.5441H70.1155C70.7605 44.5441 71.296 44.0019 71.296 43.3242V42.6342C71.296 41.9565 70.7727 41.4143 70.1155 41.4143H69.9938V39.2333H70.1398C71.077 39.2333 71.8437 38.457 71.8437 37.4959C71.8437 36.5718 71.0648 35.7832 70.1398 35.7832H68.6428V18.4709L73.7789 14.9345C74.2535 14.6265 74.5578 14.0966 74.5578 13.5545V3.94338C74.5699 3.06853 73.791 2.34154 72.8782 2.34154ZM68.655 5.5822H71.2108V12.7166L68.655 14.4786V5.5822ZM65.1863 14.4786L62.6305 12.7166V5.5822H65.1863V14.4786ZM60.744 13.8379C60.6345 13.7639 60.5493 13.653 60.5493 13.5545V3.94338C60.5493 3.80784 60.7318 3.63534 60.9509 3.63534H65.1863V4.2884H61.9976C61.6446 4.2884 61.3526 4.58412 61.3526 4.94146V13.0739C61.3526 13.2834 61.4621 13.4929 61.6325 13.6038L65.1863 16.0558V16.906L60.744 13.8379ZM23.1974 38.0627H45.7375V40.2684H44.9099H24.025H23.1974V38.0627ZM24.67 41.5745H44.2649V55.5968H24.67V41.5745ZM4.98999 43.8047H20.2642V44.9507H19.8869H5.39162H4.98999V43.8047ZM6.03667 46.2445H19.2541V55.5968H6.03667V46.2445ZM8.50733 62.7066C7.37545 62.7066 6.41396 61.918 6.13404 60.8336H10.8563C10.5885 61.918 9.6392 62.7066 8.50733 62.7066ZM72.72 56.7674C72.72 60.045 70.1155 62.7189 66.9146 62.7189C63.7137 62.7189 61.1091 60.0573 61.1091 56.7674C61.1091 53.7609 63.2755 51.2841 66.087 50.8652C66.3304 50.8159 66.5981 50.8036 66.8537 50.8036C66.8781 50.8036 66.8902 50.8036 66.9146 50.8036C66.9389 50.8036 66.9511 50.8036 66.9754 50.8036C67.231 50.8036 67.4988 50.8282 67.7543 50.8652C67.7543 50.8652 67.7543 50.8652 67.7665 50.8652C70.5658 51.2841 72.72 53.7609 72.72 56.7674ZM67.2188 49.4975C67.1215 49.4975 67.0241 49.4851 66.9146 49.4851C66.8172 49.4851 66.7198 49.4851 66.6103 49.4975V44.5317H67.2067V49.4975H67.2188ZM70.0059 43.2379H67.8517H65.9774H63.8232V42.7204H64.5048H69.3487H70.0059V43.2379ZM68.7158 41.4143H65.1498V39.2333H68.7158V41.4143ZM70.5658 37.4959C70.5658 37.73 70.371 37.9395 70.1398 37.9395H69.3487H64.5048H63.2877C63.0321 37.9395 62.8009 38.0997 62.6913 38.3338L53.9893 59.5398H11.5865H5.41597H3.43214C2.25158 59.5398 1.27792 58.5541 1.27792 57.3342V56.8906H5.37945H19.8748H24.0128H44.8856H51.2874C51.5186 56.8906 51.7377 56.7551 51.8472 56.5456L54.61 51.3581C54.7804 51.0377 54.6587 50.6434 54.3544 50.4832C54.038 50.3107 53.6485 50.4339 53.4903 50.742L50.9101 55.5968H48.3421L61.2795 37.0893H65.8192H67.9978H70.1276C70.3589 37.077 70.5658 37.2741 70.5658 37.4959ZM66.4642 35.7832V18.1259V15.7108V4.92914V2.98227V1.73776C66.4642 1.50365 66.6833 1.29417 66.9146 1.29417C67.1458 1.29417 67.3649 1.50365 67.3649 1.73776V2.98227V4.92914V15.7108V18.1259V35.7832H66.4642ZM73.2798 13.5545C73.2798 13.653 73.2068 13.7639 73.073 13.8502L68.6428 16.8937V16.0435L72.1967 13.5914C72.3671 13.4682 72.4766 13.2711 72.4766 13.0616V4.92914C72.4766 4.5718 72.1845 4.27608 71.8315 4.27608H68.6428V3.62301H72.8782C73.0973 3.62301 73.2798 3.79552 73.2798 3.93106V13.5545Z" fill="#364859"/>
<path d="M66.9148 51.8506C66.5619 51.8506 66.2698 52.1463 66.2698 52.5036C66.2698 52.861 66.5619 53.1567 66.9148 53.1567C68.8621 53.1567 70.4322 54.7709 70.4322 56.767C70.4322 57.1244 70.7243 57.4201 71.0772 57.4201C71.4302 57.4201 71.7223 57.1244 71.7223 56.767C71.7223 54.0562 69.568 51.8506 66.9148 51.8506Z" fill="#364859"/>
<path d="M66.9144 54.5C65.6973 54.5 64.6993 55.5104 64.6993 56.7549C64.6993 57.9871 65.6973 58.9852 66.9144 58.9852C68.1315 58.9852 69.1295 57.9871 69.1295 56.7549C69.1295 55.5104 68.1437 54.5 66.9144 54.5ZM66.9144 57.6914C66.4032 57.6914 65.9773 57.2724 65.9773 56.7549C65.9773 56.2127 66.3911 55.7938 66.9144 55.7938C67.4378 55.7938 67.8516 56.2127 67.8516 56.7549C67.8516 57.2724 67.4256 57.6914 66.9144 57.6914Z" fill="#364859"/>
</g>
<defs>
<clipPath id="clip0">
<rect width="74.5699" height="64" fill="white"/>
</clipPath>
</defs>
</svg>
