<svg width="57" height="53" viewBox="0 0 57 53" fill="none" xmlns="http://www.w3.org/2000/svg">
<g clip-path="url(#clip0)">
<path d="M55.8962 42.4681H53.8334C53.7248 42.2564 53.6162 42.0446 53.4986 41.8053C53.39 41.6212 53.2905 41.437 53.2 41.2529L53.0915 41.0412C52.8743 40.6729 52.5848 40.3599 52.2591 40.1482C52.0057 39.9825 51.6167 39.7799 51.2096 39.7799H47.1562V10.8265H52.7748C53.7158 10.8265 54.4757 10.0439 54.4757 9.0773V1.74917C54.4757 0.782526 53.7158 0 52.7748 0H37.0772C36.1362 0 35.3762 0.782526 35.3762 1.74917V9.0865C35.3762 10.0532 36.1362 10.8357 37.0772 10.8357H42.6777V39.7707H38.6243C38.2172 39.7707 37.8281 39.9732 37.5748 40.139C37.24 40.3599 36.9415 40.6913 36.7515 41.0596L36.3353 41.8329C36.281 41.9434 36.2176 42.0538 36.1634 42.1643C36.1091 42.2656 36.0548 42.3669 36.0005 42.4681H32.87V23.3929H33.2048C33.7295 23.3929 34.1548 22.9694 34.1548 22.4447V19.1857C34.1548 18.6609 33.7205 18.219 33.2048 18.219H21.8229H16.9914H5.60953C5.09381 18.219 4.65953 18.6609 4.65953 19.1857V22.4447C4.65953 22.9694 5.08477 23.3929 5.60953 23.3929H5.94429V42.4589H1.10381C0.497619 42.4589 0 42.9653 0 43.5821V45.9481C0 46.5649 0.497619 47.0712 1.10381 47.0712H1.80048V49.3175C1.80048 50.3302 2.60572 51.1588 3.60095 51.1588H4.73191V51.9689C4.73191 52.5213 5.17524 52.9816 5.7181 52.9816H11.7619C12.3048 52.9816 12.7481 52.5305 12.7481 51.9689V51.1588H44.2791V51.9689C44.2791 52.5213 44.7224 52.9816 45.2653 52.9816H51.291C51.8429 52.9816 52.2953 52.5305 52.2953 51.9689V51.1588H53.4262C54.4034 51.1588 55.2267 50.3118 55.2267 49.3175V47.0712H55.9234C56.5296 47.0712 57.0272 46.5649 57.0272 45.9481V43.5821C57 42.9745 56.5024 42.4681 55.8962 42.4681ZM36.3262 9.0773V1.74917C36.3262 1.31648 36.661 0.975855 37.0772 0.975855H52.7658C53.1729 0.975855 53.5167 1.3349 53.5167 1.74917V9.0865C53.5167 9.50999 53.1729 9.85982 52.7658 9.85982H46.6676H43.1572H37.0772C36.661 9.85982 36.3262 9.50999 36.3262 9.0773ZM37.1767 42.284L37.5929 41.5107C37.7015 41.2897 37.8915 41.0872 38.0905 40.9583C38.2896 40.8294 38.4886 40.7466 38.6243 40.7466H44.4962C44.7586 40.7466 44.9757 40.5256 44.9757 40.2586C44.9757 39.9917 44.7586 39.7707 44.4962 39.7707H43.6367V10.8265H46.1972V40.2586C46.1972 40.5256 46.4143 40.7466 46.6767 40.7466H51.2096C51.3453 40.7466 51.5443 40.8294 51.7434 40.9583C51.9424 41.0872 52.1324 41.2989 52.2591 41.5199L52.3586 41.704C52.4672 41.9065 52.5757 42.1183 52.6843 42.3024C52.7115 42.3577 52.7386 42.4129 52.7748 42.4681H37.0862C37.1134 42.4037 37.1495 42.3484 37.1767 42.284ZM33.2138 22.4263H32.4086H22.3024V19.1857H33.2048L33.2138 22.4263ZM21.3524 22.4263H19.8867V19.1857H21.3524V22.4263ZM18.9367 22.4263H17.471V19.1857H18.9367V22.4263ZM17.471 23.3929H18.9367V35.2044H17.471V23.3929ZM19.8867 23.3929H21.3524V35.2044H19.8867V23.3929ZM5.61858 19.1857H16.5119V22.4263H6.42381C6.38762 22.4263 6.36048 22.4355 6.33334 22.4447H5.61858V19.1857ZM6.90334 23.3929H16.521V35.6924C16.521 35.9594 16.7381 36.1803 17.0005 36.1803H21.8319C22.0943 36.1803 22.3114 35.9594 22.3114 35.6924V23.3929H31.9291V42.4589H6.90334V23.3929ZM11.7438 52.0333L5.67286 51.9965V51.1864H11.771L11.7438 52.0333ZM51.2729 52.0333L45.22 51.9965V51.1864H51.3091L51.2729 52.0333ZM54.2496 49.3359C54.2496 49.8055 53.8605 50.2105 53.4081 50.2105H51.8067H44.7496H12.2595H5.20238H3.59191C3.13048 50.2105 2.75048 49.8147 2.75048 49.3359V47.0896H54.2586V49.3359H54.2496ZM56.05 45.9573C56.05 46.0401 55.9777 46.1138 55.9053 46.1138H54.7381H2.27095H1.10381C1.03143 46.1138 0.959048 46.0401 0.959048 45.9573V43.5913C0.959048 43.5084 1.03143 43.4348 1.10381 43.4348H6.42381H32.3995H36.29H53.5438H55.9053C55.9777 43.4348 56.05 43.5084 56.05 43.5913V45.9573Z" fill="#364859"/>
<path d="M52.0693 8.0276V2.78928C52.0693 2.32897 51.6893 1.93311 51.2369 1.93311H38.6065C38.145 1.93311 37.756 2.31977 37.756 2.78928V8.0276C37.756 8.48791 38.145 8.88378 38.6065 8.88378H51.2369C51.6893 8.88378 52.0693 8.49712 52.0693 8.0276ZM51.1193 7.91713H38.706V2.90896H51.1193V7.91713Z" fill="#364859"/>
<path d="M30.2644 37.9478H28.0568C27.7944 37.9478 27.5773 38.1687 27.5773 38.4357V40.7096C27.5773 40.9766 27.7944 41.1976 28.0568 41.1976H30.2644C30.5268 41.1976 30.7439 40.9766 30.7439 40.7096V38.4357C30.7439 38.1595 30.5268 37.9478 30.2644 37.9478ZM29.7849 40.2125H28.5273V38.9144H29.7849V40.2125Z" fill="#364859"/>
<path d="M25.8853 37.9478H23.6776C23.4153 37.9478 23.1981 38.1687 23.1981 38.4357V40.7096C23.1981 40.9766 23.4153 41.1976 23.6776 41.1976H25.8853C26.1476 41.1976 26.3648 40.9766 26.3648 40.7096V38.4357C26.3648 38.1595 26.1476 37.9478 25.8853 37.9478ZM25.4057 40.2125H24.1572V38.9144H25.4148V40.2125H25.4057Z" fill="#364859"/>
</g>
<defs>
<clipPath id="clip0">
<rect width="57" height="53" fill="white"/>
</clipPath>
</defs>
</svg>
