<svg width="46" height="50" viewBox="0 0 46 50" fill="none" xmlns="http://www.w3.org/2000/svg">
<path d="M32.418 20.6676C32.418 20.04 31.5436 19.5312 30.4648 19.5312H10.3477C9.26895 19.5312 8.39453 20.04 8.39453 20.6676C8.39453 21.2952 9.26895 21.804 10.3477 21.804H30.4648C31.5436 21.804 32.418 21.2952 32.418 20.6676Z" fill="white"/>
<path d="M10.3477 27.3438C9.26895 27.3438 8.39453 27.8525 8.39453 28.4801C8.39453 29.1077 9.26895 29.6165 10.3477 29.6165H22.5655C23.6442 29.6165 24.5187 29.1077 24.5187 28.4801C24.5187 27.8525 23.6442 27.3438 22.5655 27.3438H10.3477Z" fill="white"/>
<path d="M14.9384 46.0938H8.40625C6.25234 46.0938 4.5 44.3414 4.5 42.1875V7.8125C4.5 5.65859 6.25234 3.90625 8.40625 3.90625H32.4189C34.5728 3.90625 36.3251 5.65859 36.3251 7.8125V19.8242C36.3251 20.9029 37.1995 21.7773 38.2782 21.7773C39.3569 21.7773 40.2314 20.9029 40.2314 19.8242V7.8125C40.2314 3.50469 36.7267 0 32.4189 0H8.40625C4.09844 0 0.59375 3.50469 0.59375 7.8125V42.1875C0.59375 46.4953 4.09844 50 8.40625 50H14.9384C16.0171 50 16.8915 49.1256 16.8915 48.0469C16.8915 46.9682 16.0171 46.0938 14.9384 46.0938Z" fill="white"/>
<path d="M43.6911 28.279C41.4065 25.9945 37.6893 25.9944 35.4062 28.2775L24.6833 38.9767C24.4556 39.2039 24.2876 39.4838 24.194 39.7916L21.8588 47.4796C21.6518 48.1613 21.8321 48.9014 22.3296 49.4113C22.7022 49.7932 23.2085 50.0005 23.7277 50.0005C23.9015 50.0005 24.0769 49.9773 24.249 49.9295L32.1323 47.7458C32.4567 47.656 32.7524 47.4838 32.9907 47.2459L43.6912 36.5656C45.9758 34.281 45.9758 30.5638 43.6911 28.279ZM30.5946 44.1185L26.6286 45.2171L27.7893 41.3959L35.0245 34.1767L37.7872 36.9394L30.5946 44.1185ZM40.9305 33.8023L40.552 34.1799L37.7898 31.4177L38.167 31.0413C38.9285 30.2798 40.1676 30.2798 40.9291 31.0413C41.6906 31.8029 41.6906 33.0419 40.9305 33.8023Z" fill="white"/>
<path d="M30.4648 11.7188H10.3477C9.26895 11.7188 8.39453 12.2275 8.39453 12.8551C8.39453 13.4827 9.26895 13.9915 10.3477 13.9915H30.4648C31.5436 13.9915 32.418 13.4827 32.418 12.8551C32.418 12.2275 31.5436 11.7188 30.4648 11.7188Z" fill="white"/>
</svg>
