<svg width="60" height="50" viewBox="0 0 60 50" fill="none" xmlns="http://www.w3.org/2000/svg">
<path d="M51.2109 26.4318H45.3377C44.5384 26.4318 43.7645 26.5415 43.028 26.7434C41.5751 23.8731 38.6088 21.9009 35.1908 21.9009H24.8092C21.3912 21.9009 18.4249 23.8731 16.972 26.7434C16.2355 26.5415 15.4616 26.4318 14.6623 26.4318H8.78906C3.94277 26.4318 0 30.3942 0 35.2645V44.7C0 47.6222 2.36566 49.9997 5.27344 49.9997H54.7266C57.6343 49.9997 60 47.6222 60 44.7V35.2645C60 30.3942 56.0572 26.4318 51.2109 26.4318ZM16.0201 30.7339V46.4667H5.27344C4.30418 46.4667 3.51562 45.6742 3.51562 44.7001V35.2646C3.51562 32.3424 5.88129 29.965 8.78906 29.965H14.6623C15.1395 29.965 15.6015 30.0301 16.0414 30.1501C16.0288 30.3434 16.0201 30.5377 16.0201 30.7339ZM40.4643 46.4667H19.5357V30.7338C19.5357 27.8116 21.9014 25.4342 24.8092 25.4342H35.1908C38.0986 25.4342 40.4643 27.8116 40.4643 30.7338V46.4667ZM56.4844 44.7001C56.4844 45.6742 55.6958 46.4667 54.7266 46.4667H43.9799V30.7338C43.9799 30.5375 43.9712 30.3432 43.9586 30.15C44.3985 30.0301 44.8605 29.9649 45.3377 29.9649H51.2109C54.1187 29.9649 56.4844 32.3423 56.4844 35.2645V44.7001Z" fill="white"/>
<path d="M11.7284 9.74854C7.42189 9.74854 3.91833 13.2695 3.91833 17.5974C3.91822 21.9253 7.42189 25.4463 11.7284 25.4463C16.0348 25.4463 19.5385 21.9253 19.5385 17.5974C19.5385 13.2695 16.0349 9.74854 11.7284 9.74854ZM11.7283 21.9132C9.36029 21.9132 7.43384 19.9772 7.43384 17.5974C7.43384 15.2176 9.36029 13.2816 11.7283 13.2816C14.0963 13.2816 16.0228 15.2176 16.0228 17.5974C16.0228 19.9772 14.0963 21.9132 11.7283 21.9132Z" fill="white"/>
<path d="M30.0045 -0.000488281C24.251 -0.000488281 19.5703 4.70347 19.5703 10.4855C19.5703 16.2675 24.251 20.9715 30.0045 20.9715C35.7579 20.9715 40.4386 16.2675 40.4386 10.4855C40.4386 4.70359 35.7579 -0.000488281 30.0045 -0.000488281ZM30.0045 17.4384C26.1895 17.4384 23.0859 14.3194 23.0859 10.4855C23.0859 6.65174 26.1895 3.53261 30.0045 3.53261C33.8194 3.53261 36.923 6.65162 36.923 10.4855C36.923 14.3194 33.8194 17.4384 30.0045 17.4384Z" fill="white"/>
<path d="M48.2782 9.74854C43.9718 9.74854 40.4681 13.2695 40.4681 17.5974C40.4683 21.9253 43.9718 25.4463 48.2782 25.4463C52.5847 25.4463 56.0883 21.9253 56.0883 17.5974C56.0883 13.2695 52.5847 9.74854 48.2782 9.74854ZM48.2782 21.9132C45.9103 21.9132 43.9838 19.9772 43.9838 17.5974C43.9839 15.2176 45.9103 13.2816 48.2782 13.2816C50.6462 13.2816 52.5727 15.2176 52.5727 17.5974C52.5727 19.9772 50.6462 21.9132 48.2782 21.9132Z" fill="white"/>
</svg>
