<svg width="44" height="50" viewBox="0 0 44 50" fill="none" xmlns="http://www.w3.org/2000/svg">
<path d="M22.6038 49.9985C33.106 46.3584 38.2839 40.2202 40.801 33.4122C43.3143 26.6148 43.1719 19.1567 43.052 12.8798L43.0519 12.8727L43.0511 12.8299C43.0257 11.4956 43.0017 10.2352 43.0017 9.01566C43.0017 7.9939 42.1736 7.16553 41.1516 7.16553C33.6893 7.16553 28.0168 5.02226 23.2879 0.424349C22.5695 -0.274257 21.4264 -0.274006 20.7083 0.424348C15.9798 5.02226 10.3083 7.16553 2.84643 7.16553C1.82467 7.16553 0.996303 7.9939 0.996303 9.01566C0.996303 10.2485 0.972056 11.5232 0.946151 12.8736L0.946151 12.8736L0.945998 12.8816C0.826147 19.1581 0.683742 26.6158 3.19656 33.4127C5.7134 40.2205 10.8908 46.3585 21.3921 49.9985C21.5884 50.0666 21.7932 50.1006 21.998 50.1006C22.2027 50.1006 22.4077 50.0666 22.6038 49.9985ZM22.6038 49.9985L22.5711 49.904M22.6038 49.9985C22.6038 49.9985 22.6039 49.9985 22.6039 49.9985L22.5711 49.904M22.5711 49.904C22.3856 49.9684 22.1917 50.0006 21.998 50.0006C21.8043 50.0006 21.6106 49.9684 21.4249 49.904L20.778 0.496037C21.4573 -0.164578 22.5386 -0.164811 23.2182 0.496037C27.9682 5.11451 33.6669 7.26553 41.1516 7.26553C42.1184 7.26553 42.9017 8.04912 42.9017 9.01566C42.9017 10.2364 42.9257 11.4978 42.9511 12.8319L42.9519 12.8746C43.1918 25.4375 43.5199 42.6431 22.5711 49.904ZM21.9982 46.2869C13.0652 43.0327 8.67322 37.8539 6.53891 31.9224C4.39867 25.9744 4.5253 19.2624 4.6459 12.9442C4.65974 12.2194 4.67315 11.5156 4.68288 10.8254C11.637 10.5151 17.2169 8.40199 21.9982 4.26175C26.78 8.402 32.3608 10.5153 39.3154 10.8254C39.3251 11.5154 39.3385 12.2187 39.3524 12.943C39.4729 19.2615 39.5994 25.9737 37.4589 31.9219C35.3243 37.8536 30.9319 43.0326 21.9982 46.2869Z" fill="white" stroke="white" stroke-width="0.2"/>
<path d="M28.0235 18.9212L19.5765 27.3678L15.9719 23.7632C15.2884 23.08 14.1802 23.08 13.497 23.7632C12.8135 24.4469 12.8135 25.5549 13.497 26.2384L18.339 31.0804C18.6806 31.422 19.1287 31.5928 19.5765 31.5928C20.0243 31.5928 20.4723 31.422 20.8139 31.0804L30.4982 21.3963C31.1819 20.7129 31.1819 19.6047 30.4984 18.9214C29.8152 18.2379 28.707 18.2377 28.0235 18.9212Z" fill="white"/>
</svg>
