<svg width="151" height="20" viewBox="0 0 151 20" xmlns="http://www.w3.org/2000/svg">
<path d="M0 17.5791C0 17.2067 1.02076 14.3389 3.09875 8.93855C5.21318 2.97952 7.21825 0 9.15041 0H21.2537C20.9256 1.22905 20.634 1.8622 20.4882 1.8622H13.3064C12.9783 1.8622 12.6502 1.97393 12.3221 2.16015C11.8481 2.16015 9.73371 6.70391 6.01521 15.7542V16.0521C6.01521 16.4246 6.23395 16.7225 6.59851 16.946H7.07243C7.69218 16.946 11.1555 16.946 17.353 16.946L16.1499 19.9628H0.984307C0.364558 19.9628 0.0364558 19.3296 0 18.1006V17.5791ZM24.2067 0L23.4776 1.8622H17.8269L18.556 0H24.2067Z" fill="#364859"/>
<path d="M19.8316 16.946H23.6595L22.3835 19.9628H18.7015H18.665L19.8316 16.946ZM18.7015 19.9628L19.9045 16.946H38.9709L37.7314 19.9628H18.7015ZM25.9562 1.8622L26.6489 0H41.0489L40.3198 1.8622H25.9562ZM25.5916 2.75605H31.2788L28.982 8.3054H31.5339C31.935 7.33706 32.3724 6.25698 32.8464 4.99069L33.7213 2.75605H39.6271C39.0803 4.3203 38.2783 6.14525 37.294 8.3054C36.9294 9.27374 36.2732 9.75791 35.216 9.79516C35.8722 10.2421 36.018 11.0242 35.5805 12.1415L33.8671 16.1266H28.1435L30.6225 10.5028H28.1071L25.7739 16.2011H20.2326L25.5916 2.75605ZM50.1264 7.15084C50.491 6.14525 50.6003 5.58659 50.5274 5.47486H50.4545C50.2722 5.58659 49.9077 6.14525 49.3244 7.15084L44.7674 16.1639H39.0438L45.6788 4.9162C46.2985 3.46369 47.3558 2.75605 48.7775 2.75605H54.2095C55.6312 2.75605 56.0323 3.46369 55.3396 4.9162L52.496 16.1639H46.7725L50.1264 7.15084ZM37.2575 19.9628L38.497 16.946H57.5634L56.3239 19.9628H37.2575ZM38.5699 1.8622L39.299 0H59.4226L58.6935 1.8622H38.5699ZM61.3548 4.80447C62.1933 3.46369 63.3234 2.7933 64.8181 2.7933H65.3285C65.3285 2.7933 65.3285 2.7933 65.3285 2.75605H72.6196C74.5883 2.75605 74.9893 3.9851 73.7498 6.40596L69.5574 16.1639H63.9796L66.167 10.689H64.5629L62.2297 16.1639H56.652L60.5892 6.40596C60.6621 6.21974 60.6986 6.07076 60.7715 5.92179H66.5315C66.2763 6.48045 65.9847 7.26257 65.5837 8.23091C65.5837 8.34264 65.5837 8.41713 65.6566 8.45438H66.8232C66.969 8.45438 67.0784 8.37989 67.2242 8.23091L68.2449 5.47486C68.5001 5.06518 68.3908 4.84171 67.9533 4.80447H61.3548ZM54.6105 19.9628L55.85 16.946H76.01L74.7705 19.9628H54.6105ZM56.1416 1.8622L56.8707 0H76.9943L76.2652 1.8622H56.1416ZM89.9362 2.75605C91.2486 2.75605 91.9048 3.24022 91.9048 4.17132C91.9048 4.72998 90.6288 7.93296 88.0405 13.8175C87.4207 15.3817 86.2906 16.1639 84.6501 16.1639H73.2029C76.1194 9.53445 77.6505 6.14525 77.7964 5.99627H83.0825L79.5827 14.1527V14.2644H80.4941C81.0409 14.2644 81.4784 14.1527 81.8065 13.9665C82.3169 13.9665 83.7022 11.0242 85.9989 5.10242V4.99069H78.3068C78.8536 3.72439 79.1452 2.97952 79.2182 2.75605H89.9362ZM71.7447 19.9628L72.9842 16.946H90.9569L89.7174 19.9628H71.7447ZM73.3852 1.8622L74.1143 0H93.8734L93.1443 1.8622H73.3852Z" fill="#364859"/>
<path d="M114.836 0L114.107 1.8622H109.149L102.149 20H96.608L103.535 1.8622H97.3371L98.0663 0H114.836ZM110.862 19.9628L112.102 16.946H130.074L128.835 19.9628H110.862ZM112.211 1.8622L112.94 0H132.736L132.007 1.8622H112.211ZM127.778 19.9628L129.017 16.946H149.834L148.594 19.9628H127.778ZM128.689 1.8622L129.418 0H151L150.271 1.8622H128.689ZM140.902 8.3054L143.089 2.75605H148.995C148.448 4.3203 147.646 6.14525 146.662 8.3054C146.297 9.27374 145.641 9.75791 144.584 9.79516C145.24 10.2421 145.386 11.0242 144.948 12.1415L143.235 16.1266H137.803L139.954 10.4655H138.423L136.09 16.1266H130.366L132.043 12.1415C132.553 11.0242 133.356 10.2421 134.413 9.79516C133.428 9.75791 133.173 9.2365 133.647 8.3054C134.486 6.14525 135.288 4.28305 136.053 2.75605H141.631L139.407 8.3054H140.902Z" fill="#A62525"/>
<path d="M112.794 14.9721C112.918 14.6156 113.997 11.6946 116.367 6.40596C117.169 3.94786 118.554 2.75605 120.56 2.75605H129.528C128.871 4.3203 128.507 5.13966 128.507 5.17691H123.549C122.893 5.17691 122.164 6.18249 121.362 8.23091C121.362 8.37989 121.434 8.45438 121.58 8.45438H125.408C125.59 8.49162 125.7 8.71508 125.7 9.05028V9.34823C125.7 10.1304 125.372 10.5773 124.715 10.689H120.304C120.086 10.689 119.648 11.6201 119.028 13.4451C119.174 13.7058 119.32 13.8547 119.429 13.8547H124.387C123.731 15.3073 123.403 16.0521 123.403 16.2011H113.815C113.195 16.2011 112.631 15.5733 112.794 14.9721Z" fill="#A62525"/>
</svg>
