<svg width="12" height="17" viewBox="0 0 12 17" xmlns="http://www.w3.org/2000/svg">
<path d="M0.75 16.2857H11.25C11.6635 16.2857 12 15.9432 12 15.5223V4.83482C12 4.82617 11.996 4.81905 11.9955 4.8109C11.9945 4.7992 11.9915 4.78902 11.989 4.77782C11.9811 4.74247 11.9658 4.70929 11.944 4.68062C11.9405 4.67604 11.941 4.67044 11.9375 4.66586L7.9375 0.0855C7.936 0.0839732 7.934 0.0839732 7.9325 0.0824464C7.90199 0.0499821 7.86349 0.0264332 7.821 0.01425C7.8115 0.0111964 7.803 0.0101786 7.793 0.00865179C7.7785 0.00610714 7.765 0 7.75 0H0.75C0.3365 0 0 0.342509 0 0.763393V15.5223C0 15.9432 0.3365 16.2857 0.75 16.2857ZM8 0.923705L11.1935 4.58036H8.25C8.14 4.58036 8 4.36661 8 4.19866V0.923705ZM0.5 0.763393C0.5 0.695905 0.526339 0.631181 0.573223 0.583459C0.620107 0.535738 0.683696 0.508929 0.75 0.508929H7.5V4.19866C7.5 4.61038 7.8275 5.08929 8.25 5.08929H11.5V15.5223C11.5 15.5898 11.4737 15.6545 11.4268 15.7023C11.3799 15.75 11.3163 15.7768 11.25 15.7768H0.75C0.61 15.7768 0.5 15.6648 0.5 15.5223V0.763393Z" />
<path d="M2.75 7.12502H9.25C9.31631 7.12502 9.37989 7.09821 9.42678 7.05049C9.47366 7.00277 9.5 6.93804 9.5 6.87055C9.5 6.80307 9.47366 6.73834 9.42678 6.69062C9.37989 6.6429 9.31631 6.61609 9.25 6.61609H2.75C2.6837 6.61609 2.62011 6.6429 2.57322 6.69062C2.52634 6.73834 2.5 6.80307 2.5 6.87055C2.5 6.93804 2.52634 7.00277 2.57322 7.05049C2.62011 7.09821 2.6837 7.12502 2.75 7.12502Z" />
<path d="M2.75 9.16066H9.25C9.31631 9.16066 9.37989 9.13385 9.42678 9.08613C9.47366 9.03841 9.5 8.97369 9.5 8.9062C9.5 8.83871 9.47366 8.77399 9.42678 8.72626C9.37989 8.67854 9.31631 8.65173 9.25 8.65173H2.75C2.6837 8.65173 2.62011 8.67854 2.57322 8.72626C2.52634 8.77399 2.5 8.83871 2.5 8.9062C2.5 8.97369 2.52634 9.03841 2.57322 9.08613C2.62011 9.13385 2.6837 9.16066 2.75 9.16066Z" />
<path d="M2.75 5.08925H5.75C5.8163 5.08925 5.87989 5.06244 5.92678 5.01472C5.97366 4.967 6 4.90227 6 4.83479C6 4.7673 5.97366 4.70257 5.92678 4.65485C5.87989 4.60713 5.8163 4.58032 5.75 4.58032H2.75C2.6837 4.58032 2.62011 4.60713 2.57322 4.65485C2.52634 4.70257 2.5 4.7673 2.5 4.83479C2.5 4.90227 2.52634 4.967 2.57322 5.01472C2.62011 5.06244 2.6837 5.08925 2.75 5.08925Z" />
<path d="M2.75 11.1964H9.25C9.31631 11.1964 9.37989 11.1696 9.42678 11.1219C9.47366 11.0742 9.5 11.0095 9.5 10.942C9.5 10.8745 9.47366 10.8098 9.42678 10.762C9.37989 10.7143 9.31631 10.6875 9.25 10.6875H2.75C2.6837 10.6875 2.62011 10.7143 2.57322 10.762C2.52634 10.8098 2.5 10.8745 2.5 10.942C2.5 11.0095 2.52634 11.0742 2.57322 11.1219C2.62011 11.1696 2.6837 11.1964 2.75 11.1964Z" />
<path d="M2.75 13.2322H9.25C9.31631 13.2322 9.37989 13.2054 9.42678 13.1577C9.47366 13.1099 9.5 13.0452 9.5 12.9777C9.5 12.9102 9.47366 12.8455 9.42678 12.7978C9.37989 12.7501 9.31631 12.7233 9.25 12.7233H2.75C2.6837 12.7233 2.62011 12.7501 2.57322 12.7978C2.52634 12.8455 2.5 12.9102 2.5 12.9777C2.5 13.0452 2.52634 13.1099 2.57322 13.1577C2.62011 13.2054 2.6837 13.2322 2.75 13.2322Z" />
</svg>
