<svg width="23" height="23" viewBox="0 0 23 23" xmlns="http://www.w3.org/2000/svg">
<path d="M22.3407 2.5021C21.8896 2.40533 21.446 2.69265 21.3494 3.14347L20.7427 5.97471C18.811 2.67936 15.2655 0.61145 11.3795 0.61145C5.39506 0.61145 0.526367 5.48007 0.526367 11.4646C0.526367 11.9256 0.900116 12.2995 1.36123 12.2995C1.82227 12.2995 2.19608 11.9256 2.19608 11.4646C2.19608 6.40082 6.31574 2.28117 11.3795 2.28117C14.6808 2.28117 17.692 4.04459 19.3224 6.85238L16.539 6.25589C16.0881 6.15925 15.6443 6.44651 15.5478 6.89733C15.4512 7.34815 15.7384 7.79203 16.1892 7.88861L20.967 8.91247C21.0482 8.92991 21.1306 8.93492 21.2119 8.9281C21.3473 8.91668 21.4792 8.87227 21.5954 8.79706C21.7814 8.67678 21.9119 8.48757 21.9583 8.2711L22.9822 3.49331C23.0787 3.04256 22.7915 2.59881 22.3407 2.5021Z"/>
<path d="M21.5002 10.3704C21.0394 10.3856 20.6781 10.7715 20.6933 11.2323C20.7743 13.684 19.8957 16.0203 18.2193 17.8113C16.543 19.602 14.2697 20.6329 11.818 20.7139C11.7159 20.7172 11.6142 20.7189 11.5124 20.7189C8.31351 20.7188 5.36666 19.0574 3.70242 16.3656L6.60419 17.1437C7.04954 17.2631 7.50737 16.9989 7.62679 16.5535C7.74621 16.1081 7.48199 15.6504 7.03665 15.5308L2.31709 14.2654C2.10324 14.2082 1.87529 14.2381 1.6836 14.3487C1.49179 14.4593 1.35186 14.6417 1.29449 14.8556L0.0291826 19.5753C-0.0902355 20.0206 0.17398 20.4784 0.619327 20.5979C0.691793 20.6173 0.764459 20.6267 0.836056 20.6267C1.2046 20.6267 1.54194 20.3806 1.64193 20.0077L2.35316 17.3551C4.33171 20.4706 7.77566 22.3887 11.512 22.3886C11.632 22.3886 11.7527 22.3867 11.8732 22.3827C14.7706 22.2869 17.4573 21.0687 19.4384 18.9523C21.4196 16.8359 22.4579 14.0746 22.3622 11.1772C22.347 10.7165 21.9609 10.354 21.5002 10.3704Z"/>
</svg>
