<svg width="15" height="8" viewBox="0 0 15 8" xmlns="http://www.w3.org/2000/svg">
<path fill-rule="evenodd" clip-rule="evenodd" d="M12.9096 5.08676C13.4072 5.54459 13.9324 5.97534 14.3786 6.47933C14.5758 6.7033 14.7624 6.93442 14.9052 7.19434C15.1075 7.56382 14.9243 7.97042 14.5727 7.99248L12.3875 7.99155C11.8239 8.03563 11.3743 7.82179 10.9962 7.45862C10.6936 7.16819 10.4135 6.85908 10.1225 6.55885C10.0033 6.43614 9.87844 6.32067 9.72931 6.2294C9.43099 6.04691 9.17206 6.10279 9.00158 6.39601C8.82796 6.69424 8.78858 7.02448 8.77153 7.35685C8.74812 7.8418 8.59258 7.9693 8.07569 7.9915C6.97104 8.0406 5.92268 7.8831 4.94878 7.35792C4.09016 6.89494 3.42434 6.24134 2.84481 5.5014C1.71646 4.06057 0.852368 2.47733 0.0757551 0.849745C-0.0990544 0.483047 0.0287877 0.286205 0.458098 0.279238C1.17099 0.266187 1.88378 0.267116 2.59751 0.27831C2.88725 0.282304 3.07906 0.438922 3.19093 0.696888C3.57663 1.59066 4.04857 2.44101 4.64096 3.22922C4.79871 3.43906 4.95958 3.64891 5.18865 3.79661C5.44207 3.96015 5.63501 3.90595 5.75423 3.6399C5.82988 3.4712 5.863 3.2895 5.88005 3.10883C5.93653 2.48723 5.94397 1.8667 5.84491 1.24728C5.78409 0.860706 5.55305 0.610451 5.14375 0.537297C4.93489 0.5 4.96598 0.426754 5.06711 0.314399C5.24276 0.120623 5.40796 0 5.73727 0H8.20693C8.59573 0.0723177 8.68208 0.236925 8.7353 0.60562L8.73742 3.19099C8.73318 3.33372 8.81307 3.75727 9.08586 3.85174C9.30419 3.919 9.44809 3.75439 9.57909 3.62392C10.1704 3.03247 10.5924 2.33349 10.9694 1.60971C11.1368 1.29145 11.2806 0.960939 11.42 0.630702C11.5233 0.385648 11.6854 0.265072 11.9783 0.270413L14.3552 0.272411C14.4257 0.272411 14.497 0.273386 14.5653 0.284394C14.9658 0.348723 15.0756 0.511101 14.9519 0.879703C14.7569 1.45801 14.3777 1.93994 14.0069 2.42411C13.6105 2.94101 13.1866 3.44022 12.7935 3.9602C12.4323 4.43502 12.461 4.67436 12.9096 5.08676Z"/>
</svg>
