<svg width="14" height="14" viewBox="0 0 14 14" xmlns="http://www.w3.org/2000/svg">
<path d="M13.6889 3.23398C13.6253 3.09013 13.495 2.98689 13.3404 2.95789C13.1856 2.92879 13.0267 2.97787 12.9154 3.08887L11.1527 4.84462C10.8858 5.11151 10.5309 5.25849 10.1534 5.25852C9.77593 5.25852 9.42104 5.11154 9.15413 4.84459C8.88721 4.57767 8.74019 4.22282 8.74015 3.84532C8.74015 3.46782 8.88721 3.11297 9.15351 2.84655L10.9147 1.09049C11.0263 0.979263 11.0758 0.820097 11.047 0.66517C11.0182 0.510244 10.9148 0.379497 10.7708 0.315823C10.3078 0.111012 9.79316 0.00272374 9.28243 0.00268555C8.3337 0.00272374 7.45353 0.360284 6.80426 1.00959L6.22374 1.59003C5.21734 2.59644 4.91948 4.07966 5.43231 5.37942L0.660079 10.1516C0.234452 10.5773 3.82014e-05 11.1432 4.66728e-09 11.7451C-3.81921e-05 12.3471 0.234375 12.913 0.660002 13.3387C1.08571 13.7643 1.65163 13.9987 2.25353 13.9987C2.85548 13.9986 3.42136 13.7643 3.84707 13.3387L8.61979 8.56591C9.02922 8.72599 9.46921 8.80956 9.91073 8.80956C10.8544 8.80956 11.7415 8.44215 12.4086 7.77489L12.989 7.19453C14.0059 6.17762 14.2871 4.58603 13.6889 3.23398ZM9.91073 7.85465C9.49816 7.85457 9.09037 7.75759 8.72655 7.56889C8.5243 7.46408 8.29126 7.52768 8.13381 7.69468L3.17178 12.6634C2.92648 12.9087 2.60036 13.0437 2.2535 13.0437C1.90663 13.0437 1.58051 12.9087 1.33521 12.6634C1.08998 12.4181 0.954881 12.092 0.954881 11.7451C0.954881 11.3983 1.08998 11.0722 1.33528 10.8269L6.30316 5.86413C6.47447 5.70134 6.5339 5.47353 6.42898 5.27128C5.90965 4.26965 6.10056 3.0637 6.89899 2.26527L7.47946 1.68483C7.94841 1.21585 8.58874 0.957567 9.28239 0.957567C9.41123 0.957567 9.54029 0.966849 9.66803 0.98503L8.47877 2.17085C8.03145 2.61813 7.78519 3.21282 7.78519 3.84536C7.78527 4.47793 8.03152 5.07262 8.47884 5.51987C8.92609 5.96719 9.52081 6.21352 10.1534 6.21348C10.786 6.21341 11.3806 5.96711 11.8272 5.52055L13.0195 4.3329C13.1327 5.1324 12.8819 5.95107 12.3138 6.51921L11.7334 7.09965C11.2466 7.58647 10.5992 7.85465 9.91073 7.85465Z"/>
<path d="M2.36398 10.8889C2.16501 10.8889 1.97796 10.9663 1.83728 11.1071C1.69664 11.2478 1.61914 11.4348 1.61914 11.6338C1.61914 11.8327 1.6966 12.0197 1.83728 12.1604C1.97796 12.3011 2.16501 12.3786 2.36398 12.3786C2.56294 12.3785 2.74996 12.3011 2.89067 12.1604C3.03139 12.0197 3.10881 11.8326 3.10881 11.6338C3.10881 11.4348 3.03135 11.2477 2.89067 11.1071C2.74996 10.9663 2.56294 10.8889 2.36398 10.8889Z"/>
</svg>
